<svg width="22" height="22" viewBox="0 0 22 22" fill="none" xmlns="http://www.w3.org/2000/svg">
<path d="M2.75 1.75C2.75 1.48478 2.64464 1.23043 2.45711 1.04289C2.26957 0.855357 2.01522 0.75 1.75 0.75C1.48478 0.75 1.23043 0.855357 1.04289 1.04289C0.855357 1.23043 0.75 1.48478 0.75 1.75V20.25C0.75 20.8021 1.19793 21.25 1.75 21.25H20C20.2652 21.25 20.5196 21.1446 20.7071 20.9571C20.8946 20.7696 21 20.5152 21 20.25C21 19.9848 20.8946 19.7304 20.7071 19.5429C20.5196 19.3554 20.2652 19.25 20 19.25H2.75V1.75Z" fill="#33C095" stroke="#167AB4" stroke-width="0.5"/>
<path d="M21.1726 7.21383L21.1727 7.21393L21.1778 7.20848C21.3269 7.04847 21.408 6.83683 21.4042 6.61816C21.4003 6.39949 21.3117 6.19085 21.1571 6.0362C21.0024 5.88156 20.7938 5.79297 20.5751 5.78911C20.3564 5.78526 20.1448 5.86642 19.9848 6.01552L19.9847 6.01543L19.9794 6.02069L15.3006 10.6996L12.3098 7.70884L12.3097 7.70874C12.1515 7.55068 11.937 7.46189 11.7133 7.46189C11.4896 7.46189 11.2751 7.55068 11.1168 7.70874L11.1167 7.70884L6.05471 12.7708C5.97314 12.8476 5.90764 12.9398 5.86205 13.0421C5.81592 13.1456 5.79111 13.2574 5.78911 13.3707C5.78711 13.4841 5.80796 13.5966 5.85041 13.7017C5.89287 13.8068 5.95605 13.9023 6.0362 13.9825C6.11636 14.0626 6.21183 14.1258 6.31693 14.1683C6.42204 14.2107 6.53461 14.2316 6.64794 14.2296C6.76128 14.2276 6.87305 14.2028 6.97659 14.1566C7.07891 14.111 7.17113 14.0455 7.24787 13.964L11.7133 9.49854L14.704 12.4893L14.7041 12.4894C14.8624 12.6474 15.0769 12.7362 15.3006 12.7362C15.5243 12.7362 15.7388 12.6474 15.8971 12.4894L15.8971 12.4893L21.1726 7.21383Z" fill="#33C095" stroke="#167AB4" stroke-width="0.422036"/>
</svg>
