<svg width="56" height="59" viewBox="0 0 56 59" fill="none" xmlns="http://www.w3.org/2000/svg">
<path d="M1.00438 49.0663L10.5897 31.2649L17.1453 37.3162L24.2051 40.8461L15.6421 57.0707C15.2408 57.8311 14.1331 57.7728 13.8138 56.9745L10.8984 49.6861C10.7191 49.238 10.2475 48.9797 9.77329 49.07L2.08109 50.5352C1.24693 50.694 0.601797 49.8139 1.00438 49.0663Z" fill="#33C095"/>
<path d="M54.4653 49.0663L44.88 31.2649L38.3244 37.3162L31.2646 40.8461L39.8276 57.0707C40.2289 57.8311 41.3366 57.7728 41.656 56.9745L44.5713 49.6861C44.7506 49.238 45.2223 48.9797 45.6964 49.07L53.3886 50.5352C54.2228 50.694 54.8679 49.8139 54.4653 49.0663Z" fill="#33C095"/>
<path fill-rule="evenodd" clip-rule="evenodd" d="M28.2391 42.359C39.9362 42.359 49.4185 32.8766 49.4185 21.1795C49.4185 9.48238 39.9362 0 28.2391 0C16.5419 0 7.05957 9.48238 7.05957 21.1795C7.05957 32.8766 16.5419 42.359 28.2391 42.359ZM28.2393 39.3333C38.2654 39.3333 46.3931 31.2056 46.3931 21.1795C46.3931 11.1534 38.2654 3.02563 28.2393 3.02563C18.2132 3.02563 10.0854 11.1534 10.0854 21.1795C10.0854 31.2056 18.2132 39.3333 28.2393 39.3333Z" fill="#2B95D3"/>
<path d="M28.2588 13.4635C28.4085 13.0029 29.0602 13.0029 29.2099 13.4635L30.755 18.2188C30.8219 18.4249 31.0139 18.5643 31.2305 18.5643H36.2306C36.7149 18.5643 36.9163 19.1841 36.5245 19.4688L32.4793 22.4078C32.3041 22.5351 32.2308 22.7608 32.2977 22.9668L33.8428 27.7221C33.9925 28.1828 33.4652 28.5659 33.0734 28.2812L29.0283 25.3422C28.853 25.2149 28.6157 25.2149 28.4405 25.3422L24.3954 28.2812C24.0035 28.5659 23.4763 28.1828 23.6259 27.7221L25.171 22.9668C25.238 22.7608 25.1646 22.5351 24.9894 22.4078L20.9443 19.4688C20.5524 19.1841 20.7538 18.5643 21.2382 18.5643H26.2382C26.4548 18.5643 26.6468 18.4249 26.7137 18.2188L28.2588 13.4635Z" fill="#2B95D3"/>
</svg>
