<svg width="58" height="58" viewBox="0 0 58 58" fill="none" xmlns="http://www.w3.org/2000/svg">
<path d="M12.267 58H4.6893C3.35337 58 2.2388 57.5534 1.3456 56.6602C0.4524 55.767 0.00386667 54.6524 0 53.3165V45.7301H2.9V53.3165C2.9 53.8366 3.06723 54.2638 3.4017 54.5983C3.73617 54.9328 4.1644 55.1 4.6864 55.1H12.267V58ZM45.733 58V55.1H53.3165C53.8366 55.1 54.2638 54.9328 54.5983 54.5983C54.9328 54.2638 55.1 53.8366 55.1 53.3165V45.7301H58V53.3165C58 54.6505 57.5534 55.7641 56.6602 56.6573C55.767 57.5505 54.6524 57.9981 53.3165 58H45.733ZM0 12.267V4.6864C0 3.35047 0.447567 2.2359 1.3427 1.3427C2.23783 0.4495 3.3524 0.00193333 4.6864 0H12.267V2.9H4.6864C4.1644 2.9 3.73617 3.06723 3.4017 3.4017C3.06723 3.73617 2.9 4.1644 2.9 4.6864V12.267H0ZM55.1 12.267V4.6864C55.1 4.1644 54.9328 3.73617 54.5983 3.4017C54.2638 3.06723 53.8366 2.9 53.3165 2.9H45.7301V0H53.3165C54.6505 0 55.7641 0.447567 56.6573 1.3427C57.5505 2.23783 57.9981 3.3524 58 4.6864V12.267H55.1Z" fill="#2B95D3"/>
<path d="M29.5 15C31.2405 15 32.9097 15.6612 34.1404 16.8382C35.3711 18.0151 36.0625 19.6114 36.0625 21.2759C36.0625 22.9403 35.3711 24.5366 34.1404 25.7136C32.9097 26.8905 31.2405 27.5517 29.5 27.5517C27.7595 27.5517 26.0903 26.8905 24.8596 25.7136C23.6289 24.5366 22.9375 22.9403 22.9375 21.2759C22.9375 19.6114 23.6289 18.0151 24.8596 16.8382C26.0903 15.6612 27.7595 15 29.5 15ZM16.375 19.4828C17.425 19.4828 18.4 19.7517 19.2438 20.2359C18.9625 22.8 19.75 25.3462 21.3625 27.3366C20.425 29.0579 18.55 30.2414 16.375 30.2414C14.8832 30.2414 13.4524 29.6746 12.3975 28.6658C11.3426 27.657 10.75 26.2888 10.75 24.8621C10.75 23.4354 11.3426 22.0671 12.3975 21.0583C13.4524 20.0495 14.8832 19.4828 16.375 19.4828ZM42.625 19.4828C44.1168 19.4828 45.5476 20.0495 46.6025 21.0583C47.6574 22.0671 48.25 23.4354 48.25 24.8621C48.25 26.2888 47.6574 27.657 46.6025 28.6658C45.5476 29.6746 44.1168 30.2414 42.625 30.2414C40.45 30.2414 38.575 29.0579 37.6375 27.3366C39.2716 25.3179 40.0303 22.7752 39.7562 20.2359C40.6 19.7517 41.575 19.4828 42.625 19.4828ZM17.3125 37.8621C17.3125 34.1503 22.7688 31.1379 29.5 31.1379C36.2313 31.1379 41.6875 34.1503 41.6875 37.8621V41H17.3125V37.8621ZM7 41V38.3103C7 35.8179 10.5437 33.72 15.3438 33.1103C14.2375 34.3297 13.5625 36.0152 13.5625 37.8621V41H7ZM52 41H45.4375V37.8621C45.4375 36.0152 44.7625 34.3297 43.6562 33.1103C48.4562 33.72 52 35.8179 52 38.3103V41Z" fill="#33C095"/>
</svg>
