<svg width="28" height="28" viewBox="0 0 28 28" fill="none" xmlns="http://www.w3.org/2000/svg">
<path d="M14.0001 1.55566C11.5388 1.55566 9.13283 2.28552 7.08635 3.65293C5.03987 5.02034 3.44484 6.9639 2.50295 9.23783C1.56106 11.5118 1.31461 14.0139 1.79479 16.4279C2.27496 18.8419 3.46018 21.0593 5.20056 22.7997C6.94095 24.54 9.15834 25.7253 11.5723 26.2054C13.9863 26.6856 16.4885 26.4392 18.7624 25.4973C21.0363 24.5554 22.9799 22.9604 24.3473 20.9139C25.7147 18.8674 26.4446 16.4614 26.4446 14.0001C26.4446 10.6996 25.1335 7.53434 22.7997 5.20056C20.4659 2.86677 17.3006 1.55566 14.0001 1.55566ZM19.9501 18.3479C19.1723 20.6812 17.1423 21.3346 15.3612 21.459V23.0146C15.3612 23.2724 15.2588 23.5197 15.0765 23.702C14.8941 23.8843 14.6469 23.9868 14.389 23.9868C14.1312 23.9868 13.8839 23.8843 13.7015 23.702C13.5192 23.5197 13.4168 23.2724 13.4168 23.0146V21.459C11.6307 21.2915 9.93665 20.5895 8.55567 19.4446C8.46221 19.3572 8.38687 19.2523 8.33395 19.1359C8.28102 19.0194 8.25155 18.8937 8.24722 18.7659C8.24289 18.6381 8.26377 18.5106 8.30869 18.3909C8.35361 18.2711 8.42167 18.1613 8.509 18.0679C8.59633 17.9744 8.70121 17.8991 8.81766 17.8462C8.93411 17.7932 9.05984 17.7638 9.18767 17.7594C9.31551 17.7551 9.44294 17.776 9.56271 17.8209C9.68247 17.8658 9.79221 17.9339 9.88567 18.0212C10.9034 18.8413 12.1282 19.3635 13.4246 19.5301V14.6457C12.3914 14.4872 11.4031 14.1136 10.5234 13.549C9.78376 13.0851 9.23006 12.3766 8.95865 11.5467C8.68724 10.7169 8.71528 9.81811 9.03789 9.00678C9.49678 7.83233 10.9201 6.49455 13.4246 6.27677V4.86122C13.4246 4.60337 13.527 4.35608 13.7093 4.17375C13.8916 3.99143 14.1389 3.889 14.3968 3.889C14.6546 3.889 14.9019 3.99143 15.0842 4.17375C15.2666 4.35608 15.369 4.60337 15.369 4.86122V6.30789C16.7593 6.46191 18.0791 7.00061 19.1801 7.86344C19.3327 8.04298 19.4149 8.27184 19.4114 8.50744C19.408 8.74304 19.319 8.96937 19.1612 9.14432C19.0033 9.31927 18.7873 9.43095 18.5533 9.45859C18.3193 9.48622 18.0833 9.42793 17.889 9.29455C17.1464 8.75142 16.2804 8.4013 15.369 8.27566V13.0434C15.8357 13.1446 16.3334 13.2534 16.8546 13.4168C17.4573 13.5671 18.0229 13.8392 18.5165 14.2164C19.0101 14.5937 19.4212 15.068 19.7246 15.6101C20.1577 16.4573 20.2388 17.4412 19.9501 18.3479Z" fill="#33C095"/>
<path d="M16.2713 15.2756C15.9602 15.1822 15.6569 15.1045 15.3613 15.0422V19.5222C16.9169 19.3667 17.7491 18.8222 18.1069 17.7333C18.2261 17.3238 18.1844 16.8842 17.9902 16.5045C17.8001 16.1954 17.5501 15.9275 17.2549 15.7164C16.9597 15.5054 16.6253 15.3555 16.2713 15.2756Z" fill="#33C095"/>
<path d="M10.8419 9.70668C10.6796 10.1099 10.6689 10.5583 10.812 10.9687C10.955 11.3792 11.2419 11.7238 11.6196 11.9389C12.1693 12.2917 12.782 12.5347 13.4241 12.6545V8.20557C11.7908 8.40001 11.0363 9.2089 10.8419 9.70668Z" fill="#33C095"/>
</svg>
