<svg width="32" height="33" viewBox="0 0 32 33" fill="none" xmlns="http://www.w3.org/2000/svg">
<path d="M6.6935 2.2641V2.06763L7.05873 2.21498H7.3457L7.42396 2.41145L7.81529 2.48512H7.97182L8.07617 2.77983V3.04997L8.15443 3.19732L8.25878 3.1482L8.49358 3.34467V3.49202H8.59793L8.70228 3.63938L8.96316 3.78673L8.85881 4.08143H9.06752L9.25013 4.17966L9.51101 4.44981V4.54804L9.27622 4.44981L9.11969 4.25334L8.98925 4.30246H8.83272L8.80664 4.40069L8.65011 4.44981L8.54575 4.54804L8.33705 4.71995L8.2327 4.64628V5.13745H8.05008L7.91964 5.2848H7.71093L7.60658 5.40759L7.50223 5.2848H7.05873L6.92829 5.21112V4.91642H6.64132V4.81819L6.48479 4.5726L6.27609 4.40069L6.11956 4.22878L6.30218 4.08143V3.83584L6.11956 3.78673V3.54114L6.30218 3.44291L6.38044 3.29556H6.04129L6.01521 3.09909L6.11956 3.04997V2.87806H5.88477V2.60792H6.11956L6.17173 2.46056H6.27609L6.38044 2.2641H6.6935Z" fill="#33C095"/>
<path d="M10.1888 4.68598L10.2403 4.61124L10.4204 4.68598L10.549 4.88529V5.00986H10.6776H10.9092L11.1407 5.35865V5.50813L11.1922 5.68252L11.3466 5.80709L11.4237 5.93166L11.3466 6.13096L11.4752 6.30536L11.3466 6.57941L11.5009 6.65415L11.5781 6.72889H11.4752L11.4237 6.82854H11.2436L10.9606 6.72889L10.8577 6.80363H10.6776L10.4975 6.9282L10.3689 7.10259L10.2917 7.3019L10.3174 7.45138L10.3689 7.60086L10.3174 7.6756L10.2403 7.72543L10.1888 7.82508L9.95725 7.77525H9.85434L9.69997 7.60086L9.64851 7.40155L9.33978 7.22716L9.15968 7.10259V6.90328L9.00531 6.67906H8.56793V6.35519L8.41357 6.13096L8.38784 6.0064L8.20774 5.80709H8.0791V5.50813H8.20774L8.31065 5.30882L8.2592 5.15934V4.63615L8.38784 4.73581L8.69657 4.46176L8.82521 4.41193L8.87667 4.31228H9.00531L9.13395 4.26245L9.28832 4.46176L9.51987 4.56141L9.69997 4.68598H10.1888Z" fill="#33C095"/>
<path d="M7.91944 5.3021L8.02363 5.15308H8.23202L8.28411 5.32694L8.17992 5.5008H8.04968V5.82368H8.17992L8.38831 6.02238V6.14657L8.5446 6.34527V6.66815H8.98742L9.14371 6.89169L9.16976 7.11522L9.32605 7.21457L9.19581 7.28909L9.24791 7.51262L9.3521 7.73616V7.83551H9.19581L9.03952 8.08388L8.85718 8.18323L8.72694 8.13355L8.5967 8.28258V8.4316L8.4925 8.53095L8.36226 8.58063H7.78919L7.6329 8.65514L7.55476 8.77933L7.47661 8.6303L7.39847 8.4316L7.26822 8.40677L7.11193 8.35709H6.85145L6.74725 8.40677L6.59096 8.35709H6.25233L6.04395 8.18323V7.78583L6.30443 7.46295L6.79935 7.01588V6.54397L6.66911 6.22108L6.98169 5.84852L7.24218 5.6995L7.52871 5.57531L7.60685 5.45112L7.71105 5.3021H7.91944Z" fill="#33C095"/>
<path d="M10.3672 7.89747L10.2109 7.79915V7.69355L10.3151 7.65167L10.3672 7.57793L10.2891 7.43045V7.28297L10.3672 7.08633L10.5235 6.91427L10.7058 6.79137H10.9142L10.9663 6.71763L11.2789 6.79137H11.4351L11.5133 6.71763H11.5914L11.8258 6.521L11.8779 6.59474L11.93 6.79137L12.1905 7.01259L12.3468 7.13549L12.7375 7.16007L12.8417 7.18465L12.9198 7.35671L13.024 7.43045L13.1282 7.62709L13.5449 7.72541L13.6491 7.79915L13.8054 7.97121V8.04495L13.7012 8.19242L13.5449 8.24158L13.4928 8.38906L13.3365 8.48738L13.2324 8.63486V8.75776V8.88066L13.1282 9.02814V9.24936L13.0761 9.37226L12.9198 9.49516V9.69179L12.8417 9.76553L12.7114 9.69179H12.503L12.3207 9.5689L12.2426 9.64264L12.1123 9.5689L11.93 9.37226H11.7737L11.5914 9.24936L11.5133 9.12646L11.5914 8.97898L11.4351 8.88066L11.2268 8.7086L11.1226 8.5857L11.0444 8.38906L10.81 8.31532V8.5857L10.7058 8.7086H10.4714L10.3672 8.5857L10.4193 8.31532V8.24158L10.4714 8.09411V7.97121L10.3672 7.89747Z" fill="#33C095"/>
<path d="M9.21567 7.27014L9.34591 7.2207L9.63242 7.39373L9.73661 7.59147L9.86684 7.7645L9.99707 7.73978L10.1794 7.81393V7.93752L10.0492 8.0364L9.99707 8.13527L9.84079 8.28358L9.76265 8.35773L9.73661 8.53076L9.63242 8.62963L9.58033 8.77794V8.95096L9.68451 9.04983V9.4206L9.63242 9.56891L9.76265 9.6925L9.86684 9.79137V10.088L9.99707 10.2116L10.1013 10.4835V10.6318L10.0492 10.8295L9.97103 10.9037L9.86684 10.879L9.73661 10.9531L9.52823 11.1014L9.37195 10.9531V10.6318L9.29381 10.4588L9.21567 10.4835L9.16358 10.6318L9.05939 10.7059L8.82497 10.4588V10.6318L8.6166 10.7059L8.53846 10.9531L8.38218 10.8295V10.4588L8.19985 10.2363L8.06962 10.0386L7.91334 9.84081V9.64306L7.80915 9.51947L7.75706 9.32173V9.17342H7.41845L7.15799 9.04983L7.0538 8.95096V9.07455H6.87147L6.79333 8.95096V8.77794L6.71519 8.53076L6.58496 8.35773L6.79333 8.40717L6.87147 8.35773H7.13194L7.28822 8.40717L7.41845 8.43188L7.49659 8.65435L7.57473 8.77794L7.65287 8.65435L7.80915 8.58019H8.38218L8.53846 8.53076L8.6166 8.43188V8.28358L8.74683 8.13527L8.87707 8.1847L9.05939 8.08583L9.21567 7.83865H9.37195V7.73978L9.26777 7.51732L9.21567 7.27014Z" fill="#33C095"/>
<path d="M7.42104 9.22072H7.78529V9.34437V9.56694L7.91538 9.69059V9.88843L8.07149 10.0368L8.14954 10.2099L8.3837 10.4572V10.8776L8.56583 10.9765L8.64388 10.7292L8.82601 10.6798V10.4572L9.06017 10.7292L9.16424 10.6798L9.21627 10.5067H9.29433L9.34636 10.6798V10.9765L9.50247 11.1249L9.71061 11.026L9.89274 11.1744V11.3475L10.0488 11.5453V11.7184L10.1529 11.8174L9.97079 11.9657L9.89274 12.1389L9.97079 12.1883L10.4651 11.9657H10.5432L10.7513 12.0399V12.1883L10.5432 12.3614H10.4651L10.3611 12.5098H10.257L10.0488 12.6087H9.81468L9.71061 12.8066H9.60654L9.50247 12.9302L9.21627 13.0539L9.1122 13.2022L8.98211 13.2764L8.93008 13.4743L8.98211 13.6227L9.06017 13.7216L9.26831 13.8205L9.71061 13.7958L9.81468 13.7216H9.97079V14.1173H9.50247L9.34636 14.142V14.2656L9.29433 14.414L9.34636 14.5871H9.60654L9.52849 14.7108L9.42442 14.8839H9.34636V15.2548L9.1122 15.2054L8.98211 15.1065H8.51379V15.2054V15.3538L8.35768 15.4279V15.5516H7.88936V15.4279L8.14954 15.3538V14.8344H8.35768L8.14954 14.5871L7.96742 14.5129H7.68122L7.4991 14.414L7.55113 14.3151L7.44706 14.2162L7.29095 14.3646L7.16086 14.414L7.08281 14.7602V15.1559L7.23892 15.3043V15.8236L7.16086 15.9473L6.90068 16.0215L6.79661 16.1204V16.1946L6.90068 16.2688H7.00476V16.3924L6.79661 16.5408H6.4844V16.4419H6.40635L6.27626 16.2688L6.12015 16.1946L5.93802 16.0215L5.59979 15.8236L5.49572 15.6258V15.4279H5.33961L5.18351 15.3043L5.26156 15.1559V15.0075L5.18351 14.8839H4.48102L4.2989 14.7602L4.19483 14.5871L3.98669 14.6613H3.33624L3.1281 14.5871L2.86792 14.6613V14.5129L2.76385 14.3151V14.1667L2.45163 13.87V13.4743H2.37358L2.06136 13.4248L1.8272 13.2022V12.4356L1.69711 12.3614H1.46295L1.25481 12.2378L1.17676 12.1141V11.7679L1.33286 11.669L1.46295 11.4217L1.69711 11.2486L1.74915 11.1497L1.8272 10.8776L2.06136 10.7787L2.19145 10.6056L2.37358 10.7045L2.5557 10.8776L2.60774 11.0507H2.86792L3.05004 10.8776H3.75253L3.83058 10.6056L3.98669 10.4078H4.06474L4.2989 9.88843L4.48102 9.78951L4.71519 9.6164L4.87129 9.56694L5.00138 9.41856L5.10545 9.1218L5.23554 8.94869L5.3136 8.70139V8.55301L5.62581 8.30571L5.85997 8.20679H6.06811L6.27626 8.40463H6.58847L6.71856 8.60247L6.79661 8.82504V8.94869L6.90068 9.1218H7.05679V8.94869L7.18688 9.1218L7.42104 9.22072Z" fill="#33C095"/>
<path d="M2.84803 14.824V14.6502L3.15873 14.6006L3.31407 14.6502H4.01314L4.16848 14.6006L4.27205 14.7247L4.4274 14.8736H5.15235L5.23002 15.0226V15.1715L5.17824 15.2956L5.33359 15.4446H5.46305V15.6183L5.5925 15.8666L5.92909 16.0155L6.11033 16.1893L6.26567 16.2886L6.39513 16.4623H6.4728V16.5864L6.67993 16.8098L6.60226 16.9588H6.4728L6.31745 17.0581V17.1822V17.8028H6.13622L5.8773 17.9765V18.1255L6.05854 18.1999H6.31745L6.13622 18.2992L6.05854 18.473L5.8773 18.6219H5.69607L5.5925 18.6964L5.95498 18.8205V19.168L5.8773 19.2921H5.69607L5.51483 19.2425L5.46305 19.4411V19.7886H5.17824L4.997 19.6645L4.81576 19.7141V19.9127H4.63453L4.73809 19.6148L4.81576 19.2921L4.94522 19.168L4.81576 18.9446V18.8205L4.63453 18.6964V18.2992L4.81387 18.1989L4.58274 18.0758L4.63453 17.8028H4.4274V17.6042L4.53096 17.5049H4.27205V17.8028H4.1167V17.9765L4.27205 18.1255V18.2992L4.1167 18.6219L3.78012 18.8205L3.5212 18.8702L3.15873 19.0687L2.84803 19.168H2.58912L2.43377 19.0687L2.20075 18.8702L2.01951 18.8205L1.89006 18.6219L1.60526 18.473L1.34634 18.1999L1.191 18.1255L1.11332 17.9021H0.957975L0.828519 17.6786L0.64728 17.5049V17.2815L0.828519 17.1574L0.957975 17.2815H1.11332L1.26867 17.1574L1.42402 17.1822L1.70882 17.1574L2.01951 16.9588L2.09719 16.6857L2.25254 16.5864L2.3561 16.4623L2.09719 16.512L2.01951 16.5864H1.81238L1.4758 16.6857L1.34634 16.8098H1.191L0.957975 16.6857H0.828519L0.569607 16.5864L0.440151 16.4127L0.20713 16.2389L0.0517824 16.0651L0 15.8666L0 15.6928L0.20713 15.6183L0.284803 15.3701V15.2212L0.362477 15.0226L1.191 15.0474L1.34634 15.2212H1.4758H1.70882L1.81238 15.1219L2.01951 15.0474H2.20075L2.25254 14.9481H2.30432V15.1219H2.58912L2.71858 15.0226L2.84803 14.824Z" fill="#33C095"/>
<path d="M10.4558 7.99853L10.1689 7.82495L10.1428 7.94894L10.0124 8.04812L9.96024 8.14731L9.72553 8.37048L9.69945 8.54406L9.59513 8.64325L9.54297 8.79203V8.96561L9.64729 9.0648V9.43675L9.59513 9.58553L9.82984 9.80871V10.1063L9.96024 10.2303L10.0646 10.503V10.6518L10.0124 10.8502L9.93416 10.9246L9.82984 10.8998L9.64729 10.999L9.85592 11.1725L9.882 11.3461L10.0124 11.5445V11.7181L10.1167 11.8173L9.93416 11.966L9.85592 12.1396L9.96024 12.1892L10.4036 11.966H10.5079L10.6905 12.0404H10.7687L11.1338 12.1892L11.2642 12.1644L11.525 12.2388L11.7337 12.462V12.7595L11.6293 12.8091V13.0075L11.4729 13.2555L11.3685 13.4787H11.2381L11.1599 13.6522H10.9513L10.8469 13.7266V13.9002L10.9513 13.9746L10.9773 14.173L10.873 14.2722H10.7948V14.4209L10.8469 14.5201V14.8673L11.0034 14.9169L11.1077 15.0161L11.2642 15.1401L11.3946 15.1648L11.4989 15.0905H11.6293V14.8921L11.525 14.6937H11.4468L11.3685 14.4953L11.3425 14.3713L11.2121 14.173V13.9002L11.3685 13.8258L11.525 13.7514H11.6293V13.9994L11.7337 14.049L12.0205 14.0242L12.2031 14.173H12.516L12.6204 14.0242L12.7508 13.9746L12.8029 13.9002H13.142V14.173H13.2724L13.4549 14.0986H13.7418L13.6896 14.2722L13.7418 14.3713H13.9504L14.0026 14.3218L14.1851 14.0986L14.4981 14.1234L14.6285 14.173L14.7589 14.297L14.9414 14.3713L15.124 14.4209L15.3587 14.6193H15.7238L15.8542 14.7185L15.8803 15.5864H16.3237L16.428 15.4128L16.5323 15.264L16.5845 15.0905L16.6627 14.9913L16.5845 14.8673V14.8177H16.7149L16.7409 14.6193L16.6366 14.4953L16.5062 14.4209L16.4801 14.2722V14.1234L16.6105 13.9498L16.6888 13.8754L16.8713 13.8258L16.9496 13.7514L17.1061 13.677L17.2364 13.5778L17.3408 13.4787L17.4451 13.4539L17.6016 13.5035L17.8363 13.4539L17.9406 13.3547L17.7841 13.2307L17.6276 13.1811L17.4451 13.0571L17.3408 12.9579V12.8835L17.2886 12.7843H17.419V12.6852L17.2886 12.5612L17.1843 12.4868L17.3408 12.338H17.6016V12.1148L17.2886 11.8669L17.08 11.5197V11.4453H16.8713L16.767 11.3709L16.5323 11.3461V11.4205L16.4541 11.5197L16.3758 11.3709L15.8803 11.3461L15.8542 11.1725L15.8021 11.0734H15.3587L15.2283 10.8502H14.9414L14.6024 10.751L14.4199 10.6518L14.1069 10.4038L13.8461 10.2551L13.6896 10.0815L13.5071 9.98229H13.2984L13.1159 9.90789L12.9072 9.73432L12.829 9.80871L12.6986 9.73432H12.49L12.3074 9.61033L12.2292 9.68472L12.0727 9.58553L11.9423 9.41196H11.7597L11.5772 9.28797L11.4989 9.16399L11.5772 9.0152L11.4468 8.94081L11.2121 8.74244L11.1077 8.61845L11.0295 8.42008L10.7948 8.34569V8.61845L10.6905 8.74244H10.4558L10.3514 8.61845L10.4036 8.37048V8.2713L10.4558 8.12251V7.99853Z" fill="#33C095"/>
<path d="M6.5178 17.797H6.38822H6.3623V17.0754L6.5178 16.9758H6.64737L6.72512 16.8265L6.5178 16.6026V16.5528H6.80287L7.01019 16.4035V16.2791H6.90653L6.80287 16.2044V16.1298L6.90653 16.0302L7.16568 15.9556L7.24343 15.8312V15.3086L7.08794 15.1593V14.7612L7.16568 14.4128L7.29526 14.363L7.45075 14.2137L7.55441 14.3132L7.50258 14.4128L7.68399 14.5123H7.99497L8.15047 14.587L8.35779 14.8358H8.15047V15.3584L7.89131 15.433V15.5326L8.35779 15.5574L8.38371 15.433L8.51328 15.3584V15.1095H8.97976L9.10934 15.2091L9.34258 15.2588V14.8856H9.42032L9.60173 14.587H9.34258L9.29074 14.4128L9.34258 14.2635V14.1391L9.49807 14.1142H9.96455V13.716H9.80905L9.70539 13.7907L9.26483 13.8156L9.05751 13.716L8.97976 13.6165L8.92793 13.4672L8.97976 13.2681L9.10934 13.1935L9.213 13.0442L9.49807 12.9197L9.60173 12.7953H9.70539L9.80905 12.5963H10.0423L10.2496 12.4967H10.3533L10.4569 12.3474H10.5347L10.742 12.1732V12.0239H10.7938L11.1567 12.1732L11.2862 12.1483L11.5454 12.223L11.7527 12.447V12.7456L11.649 12.7953V12.9944L11.4936 13.2432L11.3899 13.4672H11.2603L11.1826 13.6414H10.9752L10.8716 13.716V13.8902L10.9752 13.9649L11.0012 14.1639L10.8975 14.2635H10.8198V14.4128L10.8716 14.5123V14.8607L11.0271 14.9105L11.1307 15.01L11.2862 15.1344L11.4158 15.1593L11.5195 15.0847H11.649V14.8856L11.5454 14.6865H11.4676L11.3899 14.4874L11.364 14.363L11.2344 14.1639V13.8902L11.5454 13.7409H11.649V13.9898L11.7527 14.0395L12.0378 14.0146L12.2192 14.1639H12.5302L12.6338 14.0146L12.7634 13.9649L12.8152 13.8902H13.1521V14.1639H13.2817L13.4631 14.0893H13.7482L13.6964 14.2635L13.7482 14.363H13.9555L14.1888 14.0893L14.4997 14.1142L14.6293 14.1639L14.7589 14.2884L14.9403 14.363L15.1217 14.4128L15.3549 14.6119H15.7178L15.8473 14.7114L15.8733 15.6321L15.6918 15.7068H15.0699L14.9921 15.657L14.8885 15.5823H14.6552L14.6034 15.8561V16.0302H14.8885L15.044 16.1547H15.1217L15.2513 16.2542V16.3786L15.044 16.5528L14.8885 16.727L14.7589 16.7021L14.733 16.9758L14.6034 17.0256L14.4738 17.1251L14.4479 17.2247H14.1888L14.111 17.2744L14.0333 17.4237V17.4984L13.9296 17.6726H13.8259L13.7482 17.7721V17.9961L13.6445 18.0707V18.4191L13.4631 18.4938L13.4372 18.4191L13.2817 18.3444L13.1262 18.1454H12.893V18.2698L12.6597 18.22L12.6079 18.1205L12.4783 18.1951H12.3488L12.2451 18.0458L12.1933 18.0707H12.0119L11.8823 18.1205L11.5713 18.22L11.364 18.2698H11.2603L11.1826 18.1951H11.0012L10.8457 18.2698L10.7679 18.4191L10.5347 18.4689H10.3533L10.0941 18.3942L9.93863 18.3444L10.0941 18.1951V18.0707H9.67948L9.36849 18.1205L9.34258 18.2698L9.18708 18.4191L9.13525 18.6431L8.77244 18.6679L8.66878 18.7675L8.51328 18.6431L8.43554 18.4191L8.35779 18.4689H7.8654L7.60624 18.3444H7.45075L7.32117 18.1951L7.03611 18.1205L6.80287 18.0707L6.64737 17.8965V17.6975L6.5178 17.797Z" fill="#33C095"/>
<path d="M17.2303 11.4232H17.0746V11.4974L17.2822 11.8438L17.5937 12.0912V12.3138H17.3341L17.1784 12.4623L17.2822 12.5365L17.412 12.6355V12.7592H17.2822L17.3341 12.8581V12.9324L17.438 13.0313L17.6197 13.155L17.8014 13.2045L17.9312 13.3282L17.8273 13.4272L17.5937 13.4766L17.438 13.4272L17.3341 13.4519L17.2303 13.5509L17.1005 13.6498L16.9448 13.724L16.8669 13.7983L16.6852 13.8477L16.6073 13.922L16.4775 14.0952V14.2683L16.5035 14.392L16.6333 14.4663L16.7371 14.6147L16.7112 14.7879H17.1524L17.2563 14.6889L17.3341 14.7384L17.4899 14.8621L17.6975 14.9363L17.7495 15.1095H17.9312L18.0609 14.8868L18.1648 14.7879L18.2686 14.9858H18.3724L18.6061 14.8621H18.9435L19.0992 14.7631V14.5157H19.3848L19.5665 14.6394L19.6444 14.7879L19.7741 14.8868L19.878 15.0353L19.9818 15.0106L20.0337 14.9363V14.8868L20.1116 14.6889L20.3192 14.7137H20.501L20.6048 14.6147V14.2931L20.9941 14.0209L21.072 13.922H21.4095V13.6993L21.6431 13.6498L21.7469 13.5261L21.721 13.4519L21.5133 13.3035L21.4095 13.1798V13.1055L21.7988 12.8581L21.8507 12.6355H21.9286L21.9805 12.5118L21.8507 12.3138L21.6431 12.5118L21.5133 12.5612H21.0461L20.9422 12.6355L20.6307 12.5612L20.5269 12.3881H20.4231L20.3192 12.5612H20.2414L19.9818 12.3881H19.9299L19.4627 12.2644L19.3069 12.3881L19.1252 12.3138V12.1407L18.9954 12.0417L18.8916 12.1407L18.7618 12.1654H18.5541V12.1407L18.3724 12.0417L18.2946 11.9427L18.1907 11.9675L17.9571 11.819L17.8792 11.6953L17.9052 11.5221H17.8014L17.4639 11.3242L17.3341 11.349L17.2303 11.4232Z" fill="#33C095"/>
<path d="M4.67578 20.2689V19.9211H4.85726V19.7225L5.03874 19.6728L5.22022 19.797H5.50539V19.4492L5.55725 19.2505L5.73872 19.3002H5.9202L5.99798 19.176V18.8283L5.63502 18.7041L5.73872 18.6296H5.9202L6.10168 18.4806L6.17946 18.3067L6.36093 18.2074H6.10168L5.9202 18.1329V17.9838L6.17946 17.81H6.36093V17.7851H6.54241L6.64611 17.6858V17.8845L6.80167 18.0584L7.32017 18.1825L7.4498 18.3316H7.60535L7.86461 18.4557H8.35719L8.43497 18.4061L8.51274 18.6296L8.6683 18.7538L8.772 18.6544L9.13495 18.6296L9.1868 18.4061L9.34236 18.257L9.36828 18.108L9.67939 18.0584H10.0942V18.1825L9.93864 18.3316L10.3534 18.4557H10.5349L10.7683 18.4061L10.846 18.257L11.0016 18.1825H11.1831L11.2608 18.257H11.3645L12.0127 18.0584H12.1942L12.246 18.0335L12.3497 18.1825H12.4793L12.609 18.108L12.6608 18.2074L12.8941 18.257V18.1329H13.1275L13.283 18.3316L13.4386 18.4061L13.4904 18.5551L13.2052 18.8035L13.3349 19.0022L13.3608 19.1512L13.283 19.3002L13.4904 19.4244V19.6479H13.283V19.797H13.4126V19.8963L13.283 19.9957V20.1447L13.4386 20.244L13.646 20.4924V20.7408H13.4386L13.3608 20.6414H13.283L13.2312 20.7905V21.0388L13.1275 21.1133V21.4859L12.9978 21.4611H12.8682L12.7645 21.3617V21.1879L12.7127 21.0637V20.7656L12.7645 20.7159L12.7127 20.5918L12.583 20.4179H12.4793V20.5421H12.2979L12.1942 20.4924L12.0127 20.4427L11.9867 20.3682H11.8053L11.7534 20.4179H11.6238L11.546 20.2937L11.4423 20.1695H11.1571L10.9757 20.1198V20.3931L10.872 20.6414V20.7408L10.7423 20.8153L10.509 20.7408L10.4571 20.7905L10.3275 21.0637L10.509 21.2872V21.3617L10.3794 21.4611L10.3275 21.5356L10.2238 21.6349L10.1201 21.6846L10.0942 21.8336H9.93864L9.91272 21.7839L9.86087 21.7343L9.78309 21.7591L9.65346 21.933L9.52383 22.0323H9.36828L9.31643 22.1317V22.3304H9.21273L9.13495 22.5291H8.82385L8.74607 22.7278V22.9016H8.64237L8.43497 22.852L8.33127 22.9016L8.02016 22.8023H7.94238L7.86461 22.9513L7.94238 23.0755V23.3239H7.5535L7.47573 23.448H7.3461L7.26832 23.3735L7.11277 23.448L7.06092 23.5971L6.87944 23.6467V23.8206L6.74981 23.7461H6.59426L6.49056 23.8206V23.9945L6.59426 24.1435H6.74981L6.72389 24.4167L6.64611 24.4912L6.43871 24.7893H6.10168L6.0239 24.8886L5.94613 24.9383L5.84243 24.7644L5.68687 24.5657V24.3174L5.58317 24.218L5.50539 24.0441V23.7958L5.42762 23.5971V23.4729L5.37577 23.2245V23.0755L5.29799 22.9016V22.7526L5.19429 22.5787V22.4297L5.09059 22.2559L5.11651 22.1317L4.98689 21.8833V21.5853L4.85726 21.4859V20.5918L4.67578 20.2689Z" fill="#33C095"/>
<path d="M5.98887 24.8797L5.91079 24.93L5.88477 25.0806H5.98887V25.156L6.06695 25.3318L6.14502 25.4322V25.608L6.24913 25.7336L6.3272 25.6331H6.40528L6.45733 25.5829V24.8797L6.40528 24.7793H6.06695L5.98887 24.8797Z" fill="#33C095"/>
<path d="M6.2666 25.7736V25.7239L6.34414 25.6246H6.42167L6.47336 25.5501V24.8796L6.44752 24.7554L6.62843 24.4822L6.70597 24.4077L6.73181 24.1345H6.57674L6.47336 23.9855V23.8117L6.57674 23.7372H6.73181L6.86104 23.8117V23.6378L7.04195 23.5882L7.09364 23.4392L7.24871 23.3647L7.32625 23.4392H7.45547L7.53301 23.315H7.92068V23.0666L7.84315 22.9425L7.92068 22.7935H7.99821L8.30835 22.8928L8.41173 22.8431L8.61849 22.8928H8.72187V22.719L8.79941 22.5203H9.10955L9.18708 22.3216H9.29046V22.1229L9.34215 22.0236H9.49722L9.62645 21.9243L9.75567 21.7504L9.83321 21.7256L9.8849 21.7753L9.91074 21.8249H10.04L10.0658 21.9243V22.3216L10.04 22.3961L10.0141 22.5948L10.1433 22.719L10.0917 22.7935L10.0658 22.868L9.91074 22.9425L9.8849 23.0418L9.91074 23.166V23.5633L9.8849 23.8117H9.78152V23.9607H9.8849L10.0658 24.0352V24.2339L10.0141 24.3829L9.8849 24.4325H9.62645L9.57476 24.4822V24.8299L9.49722 24.9789V25.1279L9.6006 25.2521L9.62645 25.4011L9.47138 25.4756L9.18708 25.4507L9.23877 25.5998L9.29046 25.6991L9.18708 25.8233V25.9723L9.23877 26.0468L9.29046 26.1709L9.34215 26.1958V26.4441L9.39384 26.32L9.57476 26.2951H9.72983L9.8849 26.32V26.5931H9.62645L9.57476 26.4441H9.47138L9.39384 26.5186L9.368 26.618L9.44553 26.6925V26.8415L9.47138 26.916L9.65229 26.8911L9.80736 26.7421L10.0141 26.8911L10.2984 26.767L10.4018 26.7421L10.5052 26.767H10.6086L10.6344 26.8663L10.6861 26.9905L10.7895 27.0402H10.9445L11.0221 27.1892V27.3878H11.2288V27.4375L11.0738 27.6113V27.8349L10.9187 27.8597L10.7895 27.959L10.6344 27.8597H10.5052L10.3501 27.8349L10.2984 27.9094L10.2209 28.0584H10.0658L10.0917 28.3067L10.0141 28.406V28.5551L10.2467 28.6296V28.7537V28.8779L9.98828 28.9027L9.93659 28.9772H9.54891L9.368 29.0517L9.26462 29.2007H9.10955L8.98032 29.0517H8.79941L8.69603 28.9772H8.54096L8.41173 28.9027L8.17913 28.8282L8.10159 28.7041L7.89484 28.6047L7.76561 28.4557L7.61054 28.3315L7.50716 28.1825L7.14533 27.9839L7.0678 27.7852H7.01611V27.4127L6.96442 27.2388V27.0402L6.88688 26.8911V26.8166L6.73181 26.6925V26.3696L6.57674 26.2951V26.0964L6.39583 25.8481L6.2666 25.7736Z" fill="#33C095"/>
<path d="M7.2144 28.1646L7.18848 27.9922L7.52542 28.1892L7.62909 28.337L7.7846 28.4602L7.9142 28.608L8.12155 28.7065L8.22522 28.8297L8.43257 28.9036L8.56216 28.9775H8.71767L8.82135 29.0514L8.87319 29.2238L8.71767 29.3223L8.79543 29.5194H8.95094L9.00278 29.6918L9.15829 29.7164L9.23605 29.8888L9.21013 30.0613L9.3138 30.2829V30.4554L9.39156 30.6032L9.52115 30.677L9.65074 30.6032H9.7285L9.75442 30.7756V31.2682L9.80626 31.4653L9.98769 31.4899L9.93585 31.6623L9.75442 31.7362V31.8594L9.65074 32.0564L9.7285 32.2288V32.3274L9.75442 32.4259V32.623L9.65074 32.7954L9.4434 32.623L9.3138 32.4259H9.21013L9.15829 32.2288L9.00278 32.0072L8.87319 31.8594V31.6377L8.79543 31.4899V31.416H8.87319L8.79543 31.0712V30.9726L8.71767 30.8987L8.63992 30.6524L8.51033 30.4554V30.3815L8.43257 30.1598L8.27706 30.0613L8.22522 29.8642V29.7164L7.99195 29.3716L7.86236 29.0514H7.75869L7.60317 28.8543L7.4995 28.6326L7.2144 28.1646Z" fill="#33C095"/>
<path d="M21.8136 11.7695L21.6299 11.6466L21.6824 11.5237V11.2287L21.7611 11.1304V11.0075L21.8136 10.8109L21.9448 10.8355L22.0498 10.7617L22.2597 10.688H22.5746V10.9584L22.6796 11.0321L22.6271 11.2287V11.5483L22.5746 11.622L22.4959 11.6712L22.2335 11.6958L22.1285 11.7695H21.8136Z" fill="#33C095"/>
<path d="M26.107 11.3369V12.0606L26.3156 11.9358L26.6024 11.9608L26.7328 11.836H26.9935L27.2021 11.9608H27.88L27.9321 11.8859L28.1407 11.861L28.1929 11.6613L28.2972 11.5864L28.3232 11.4367L28.61 11.237L28.7925 11.262L28.9229 11.0623H29.0793L29.1315 10.9874L29.4183 10.9625L29.5487 10.8626H29.7572L29.9137 10.8377L30.018 10.6879H30.3309L30.4351 10.7878L30.3309 11.0623V11.262L30.4091 11.4367V11.5864L30.2266 11.5615L29.9919 11.6114L29.8615 11.7611L29.7572 11.7861L29.653 11.9358L29.679 12.3102L29.9919 12.1605L30.2266 11.9858L30.5655 11.6613L30.8002 11.5864H30.9827L31.1913 11.5365L31.3216 11.5864L31.3999 11.6613L31.5041 11.6863L31.6084 11.8111H31.7127V11.5864L31.5824 11.4866L31.5302 11.3618L31.5041 11.1621L31.5824 11.0374L31.7127 10.9126L31.8431 10.8876L31.9995 10.7878V10.4633L31.9474 10.3385L31.7909 10.2637L31.6867 10.2886H31.5302L31.5041 10.1389L31.3999 10.1139L31.3216 10.0141L31.2434 9.98912L31.0348 10.064L31.0609 9.96416L31.1391 9.86433V9.73954L31.0348 9.51492L30.8784 9.39013L30.8262 9.34021L30.8784 9.16551L30.8262 9.11559H30.722L30.6959 9.06567H30.3048L30.2787 9.11559L30.1483 9.16551L30.0701 9.26534L29.8876 9.31525L29.7572 9.41509L29.5487 9.39013L29.4183 9.31525H29.2619L29.1576 9.21542L28.8708 9.16551L28.7143 9.21542L28.6882 9.465L28.5057 9.61475L28.3493 9.7645L28.1407 9.78946L28.0886 9.86433L27.8278 9.9392L27.6714 9.91425L27.5932 9.98912L27.3324 10.1389V10.2387H27.176L27.1499 10.3635L26.9674 10.5382L26.8631 10.5632V10.7379L26.7067 10.8876L26.3677 10.9375H26.2895L26.107 11.0124H25.8984L25.742 10.9375L25.6377 11.1871L25.742 11.3369H26.107Z" fill="#33C095"/>
<path d="M29.5479 11.9285H29.6516L29.6775 12.3034L29.5479 12.3783V12.4783L29.4443 12.6283L29.5479 12.9282L29.6516 13.0531L29.4961 13.2281L29.4183 13.2781L29.3924 13.453L29.2888 13.478L29.211 13.603L29.1332 13.703L29.0814 13.728L29.0036 13.7779V13.628L28.9259 13.553H28.8222L28.7185 13.603L28.589 13.678H28.4853L28.2779 13.603H28.1224L28.0187 13.678V13.8779L27.8632 14.0279H27.63L27.7336 13.8529V13.753L27.5781 13.678L27.63 13.478L27.7855 13.3781L27.941 13.2031L28.0965 13.2531L28.2779 13.0781L28.3816 12.9032L28.4334 12.8032L28.589 12.5783L28.7704 12.4533H28.8222L29.1332 12.1784L29.5479 11.9285Z" fill="#33C095"/>
<path d="M27.5896 14.0682L27.6412 14.0189H27.8733L28.028 13.871V13.6738L28.1312 13.5998H28.286L28.4923 13.6738H28.6212L28.8276 13.5505H28.9307L29.0081 13.6245V13.7478L28.9307 14.0189L29.1113 14.1422L29.1371 14.1915L29.0597 14.4134L28.9823 14.512L28.9307 14.6106L28.8276 14.7092L28.7244 14.8818L28.6728 15.079L28.5697 15.2269V15.3501L28.5181 15.5227H28.2602L28.157 15.4734H27.9765L27.7959 15.4488H27.6928L27.5896 15.3994V15.3255H27.2285V14.8324L27.3833 14.6599V14.4134L27.4606 14.3148L27.538 14.1915L27.5896 14.0682Z" fill="#33C095"/>
<path d="M27.1067 14.9185L27.2099 14.9681V15.3158H27.5712V15.3903L27.6744 15.44L27.6228 15.5145V15.887L27.6744 16.0856V16.4333L27.6228 16.5078L27.468 16.5575L27.3906 16.6568L27.3389 16.7561V17.1038L27.3906 17.2414V17.4515L27.1583 17.6253L27.1325 17.7495L26.9002 17.6253H26.8228L26.797 17.675H26.7196V17.4266V17.228L26.6679 17.2031V16.9548L26.5389 16.6816L26.4873 16.5078V16.185L26.4357 16.0856L26.3583 15.887L26.3066 15.8125L26.4615 15.5641V15.3903L26.5131 15.2413L26.6163 15.142L26.8744 15.0675L26.9518 14.9681L27.1067 14.9185Z" fill="#33C095"/>
<path d="M16.5612 15.1L16.5088 15.2729H16.6398L16.7184 15.347V15.5198L17.0329 15.8409V15.9396H17.1639V16.1866L17.2425 16.3347L17.3474 16.5076L17.5308 16.6064H17.6356V16.8039L17.426 16.9027L17.2425 17.0015V17.2237L17.295 17.2484L17.7404 17.3966L17.9239 17.2978L18.2908 17.2237L18.4742 17.2484V17.3966L18.3694 17.5694L18.4742 17.6682H18.6052L18.7101 17.6188L19.0245 17.5694L19.1031 17.6682L19.3914 17.7176L19.4962 17.5694V17.2484L19.5486 17.1743H19.7321L19.8369 17.2978L20.1514 17.3966L20.2824 17.4707L20.361 17.3719V17.2484L20.2038 17.0015L19.9941 16.9027L19.9155 16.8039V16.7545L19.9941 16.7051V16.6064H19.7321L19.5486 16.5076L19.3914 16.4088V16.0384L19.4962 15.9396H19.5486L19.6272 16.0384L19.7845 16.0137L19.8893 15.9396L19.9941 15.8409H20.2038L20.2824 15.7174L20.361 15.5939L20.5706 15.4951L20.6231 15.5939L20.8065 15.6927L20.8851 15.6433V15.3964H21.0948L21.1734 15.2482H21.2258L21.3044 15.1494V15.0506H21.4092V14.8778L21.4616 14.779L21.5665 14.7543V14.458L21.4354 14.2111V13.9641H21.0948L21.0161 14.0629L20.6231 14.3345V14.6802L20.5182 14.7543L20.3348 14.7296H20.1514L20.0465 14.9272V14.9766L19.9941 15.0506H19.8893L19.7845 14.9272L19.6535 14.8284L19.5748 14.6802L19.3914 14.5568H19.1031V14.8284L18.9197 14.9272H18.6052L18.3694 15.0506H18.2646L18.1597 14.8284L18.0287 14.9272L17.9239 15.1494H17.7404L17.688 15.0013L17.426 14.8778L17.2425 14.7296L17.1377 14.8284H16.5612V14.8778L16.6398 15.0013L16.5612 15.1Z" fill="#33C095"/>
<path d="M25.8702 12.0551H26.13L26.3377 11.9308L26.6234 11.9557L26.7533 11.8314H27.013L27.2208 11.9557H27.896L27.948 11.8811L28.1557 11.8562L28.2077 11.6574L28.3116 11.5828L28.3375 11.4337L28.6232 11.2348L28.805 11.2597L28.9349 11.0608H29.0907L29.1427 10.9863L29.4284 10.9614L29.5582 10.862H29.766L29.9218 10.8371L30.0257 10.688H30.3374L30.4412 10.7874L30.3374 11.0608V11.2597L30.4153 11.4337V11.5828L30.2594 11.558L29.9997 11.6077L29.8699 11.7568L29.766 11.7817L29.6621 11.9308H29.5582L29.1427 12.1794L28.857 12.4279H28.805L28.6232 12.5522L28.4414 12.8505L28.2856 13.0742L28.1038 13.2482L27.948 13.1985L27.7921 13.3725L27.6363 13.4719L27.6103 13.6708L27.7402 13.7453V13.8447L27.6103 14.0685L27.5324 14.1927L27.4805 14.317L27.3766 14.4164V14.665L27.2208 14.839V14.9881L27.1169 14.9384L26.9611 14.9881L26.9091 15.0876L26.5975 15.1621L26.5195 15.2367L26.4157 14.9633L26.2338 14.839L26.3118 14.6153V14.4662L26.3897 14.4164H26.4936H26.5975V14.317L26.4936 14.2673V14.2424L26.9351 13.9442V13.8447L26.8572 13.8199L26.7013 13.5465L26.4157 13.3725L26.3118 13.3476V13.1488L26.4936 13.0245H25.8702L25.7144 13.1239L25.6365 13.2482L25.5066 13.2731L25.4287 13.3476H25.2729L25.195 13.2731L24.9612 13.1736H24.8314L24.6236 13.1239H24.1302L24.0003 13.1488L23.9484 13.1985L23.8185 13.3476V13.4968L23.7406 13.4719L23.6886 13.3725V13.1985L23.5848 13.0245L23.5068 12.9002L23.5848 12.8256H23.6627V12.5771L23.7666 12.5025V12.3534L23.6627 12.2539L23.6367 12.1794L23.9484 12.2042L24.1042 12.0551H24.286L24.4678 12.1297L25.6884 12.1545L25.8702 12.0551Z" fill="#33C095"/>
<path d="M23.7628 13.5559L23.8144 13.4814V13.3326L23.995 13.1341L24.124 13.1093H24.6141L24.8205 13.1589H24.9495L25.1817 13.2581L25.2333 13.3326H25.4139L25.4912 13.2581L25.6202 13.2333L25.6976 13.1093L25.8524 13.01H26.4716L26.291 13.1341V13.3326L26.3942 13.3574L26.678 13.531L26.8327 13.804L26.9101 13.8288V13.928L26.4716 14.2506L26.291 14.2009L26.1878 14.0273H25.904L25.646 14.1017H25.4139L25.2849 14.0025H25.0527L24.9237 14.0521L24.7689 14.0273L24.5883 14.0769H24.2013L24.0466 13.9776L23.9692 14.0025L23.7628 13.9528L23.6854 13.9032L23.6338 13.7792L23.7628 13.6551V13.5559Z" fill="#33C095"/>
<path d="M10.7354 1.83448H10.1645V1.71053L10.0608 1.537L9.80129 1.46263L9.59371 1.33867L9.51587 1.16514L9.33425 0.991611L9.07478 0.89245L8.86721 0.694128L8.68558 0.669337L8.50395 0.396644L8.27043 0.247903V0L8.16664 0L7.93312 0.0743708H7.80339L7.62176 0L7.44013 0L7.25851 0.0743708H6.55794V0.247903H5.90928L5.96117 0.396644L5.77954 0.694128L5.59791 0.669337L5.41629 0.867659L5.3125 1.16514L5.59791 1.33867L5.96117 1.36346L6.06496 1.61137L6.42821 1.71053V1.83448L6.58389 1.85927L6.71362 2.0328L7.10283 2.20633H7.38824L7.44013 2.40466L7.80339 2.47903H7.98502L8.11475 2.75172V2.99962L8.16664 3.17315L8.27043 3.12357L8.50395 3.29711V3.44585H8.60774L8.71152 3.61938L8.97099 3.74333L8.86721 4.0656H9.07478L9.23046 4.13997L9.51587 4.43746V4.53662L9.6975 4.66057H10.0089H10.1645L10.2424 4.5862L10.3981 4.66057L10.5537 4.8341V4.95805L10.6835 5.00763L10.9429 4.95805V5.00763L11.1505 5.1068L11.3062 5.23075L11.4619 5.00763V5.28033H11.8251L11.9289 5.23075H12.0327L12.1624 5.00763V4.21435H11.877L11.6176 4.0656L11.6695 3.86728L11.7213 3.74333L11.6695 3.61938L11.6176 3.39627H12.1624L12.2403 3.12357V2.92525H12.4479V2.85088V2.70214H12.7333L12.8371 2.5534V2.2807L12.9149 1.98322V1.83448L12.7333 1.71053V1.63616H12.5257L12.396 1.58658L12.1624 1.38826L12.0327 1.16514H11.6695L11.41 1.46263L10.7354 1.83448Z" fill="#33C095"/>
<path d="M21.6548 11.8338L21.6029 11.6352L21.7845 11.7593H22.0957L22.1995 11.6848L22.4329 11.66L22.5108 11.6104L22.5886 11.8338L22.7183 11.958V12.0573H23.2371L23.3927 12.1815H23.6002L23.6262 12.256L23.7299 12.3553V12.5043L23.6262 12.5788V12.8271H23.5484L23.4705 12.9016L23.3927 12.9265L23.3408 13.1251H23.3149L23.1593 13.0755L22.9777 12.9513L22.848 12.852V12.703L22.7442 12.6036H22.6664V12.7526H22.5886L22.4329 12.6781L22.1736 12.703L21.7845 13.0755V13.1996L21.9401 13.3238L22.0439 13.3735L22.1217 13.5721L22.3033 13.7459L22.4589 13.7211L22.5886 13.8204L22.7183 13.9694L22.6923 14.0439H22.4589L22.2254 14.0936L22.0957 14.1929L22.0698 14.2923L21.7326 14.5157V14.7144L21.7845 14.8137L21.8882 14.9131L21.992 14.9627L22.0957 15.0372H22.407V15.2856L22.4589 15.3849V15.4842L22.3551 15.5835L22.2254 15.658V15.7574L22.3033 15.9064L22.3292 15.956L22.4589 16.0305L22.4848 16.2292L22.6923 16.4775L22.6145 16.701V16.85L22.7183 17.0238V17.3963L22.822 17.595V17.6943L22.6664 17.744L22.822 17.893V18.2903L22.6664 18.191H22.3551V17.9178H22.3292L22.2254 18.191H22.0439L21.8882 18.0668L21.7845 17.9178V17.7191L21.8882 17.595L21.7326 17.4956L21.6029 17.2225L21.5769 17.297V17.3963L21.6807 17.5453L21.7066 17.6198V17.7191L21.6288 17.8433L21.551 17.9426L21.2138 18.1165L21.136 18.1413L21.0841 18.0916L21.0322 17.9923L20.9803 17.9426H20.8247L20.695 17.744L20.4615 17.6198L20.254 17.4708L20.3318 17.3715V17.2473L20.1762 16.999L19.9687 16.8997L19.8909 16.8003V16.7507L19.9687 16.6762V16.6017H19.7093L19.3721 16.403V16.0305L19.4758 15.9312H19.5277L19.6055 16.0305L19.7612 16.0057L19.8649 15.9312L19.9687 15.8319H20.1762L20.3318 15.5835L20.5394 15.4842L20.5912 15.5835L20.7728 15.6829L20.8506 15.6332V15.3849H21.0581L21.136 15.2359H21.1878L21.2657 15.1366V15.0372H21.3694V14.8882L21.4213 14.7641L21.5251 14.7392V14.4413L21.3954 14.1929V13.7211L21.6548 13.6714L21.7326 13.5225L21.7066 13.448L21.4991 13.3238L21.3954 13.1748V13.1251L21.7845 12.8768L21.8363 12.6533H21.9142L21.966 12.5292L21.8363 12.3305L21.7066 12.4298L21.7845 12.1567V11.9828L21.6548 11.8338Z" fill="#33C095"/>
<path d="M13.3407 21.5836L13.1055 21.4846V21.1131L13.21 21.0388V20.7911L13.2623 20.6425H13.3407L13.4192 20.7416H13.6283V20.7168V20.494L13.4192 20.2463L13.2623 20.1472V19.9987L13.393 19.8996V19.8005H13.2623V19.652H13.4715V19.4291L13.2623 19.3052L13.3407 19.1567L13.3146 19.0328L13.1839 18.8099L13.4715 18.5623L13.4453 18.488L13.6283 18.4137V18.067L13.7329 17.9927V17.7698L13.8113 17.6708H13.9159L14.0204 17.4974V17.4231L14.0989 17.2745L14.1773 17.225H14.4387L14.4649 17.1259L14.5956 17.0269L14.7263 16.9773L14.7524 16.6802L14.8831 16.7297L15.04 16.5811L15.2491 16.383V16.2592L15.1184 16.1601H15.04L14.8831 16.0363H14.5956V15.8381L14.6478 15.5905H14.8831L15.0661 15.7143H15.6935L15.8765 15.64V15.5905H16.3209L16.4255 15.4171L16.5562 15.2686H16.6608L16.7392 15.3676V15.5162L17.0529 15.8381V15.9372H17.1836V16.1849L17.3666 16.5068L17.5496 16.6059H17.6542V16.804L17.2621 17.0021V17.225L17.1575 17.2745L16.8699 17.5469L16.7392 17.5965V17.9432L16.6608 18.0918L16.5824 18.2156L16.5301 18.3642L16.3471 18.6366L16.2687 18.6614V18.7109H15.7197L15.5367 18.909H15.4583V19.8996H15.7981L15.8765 20.1225L15.7197 20.2463L15.3014 19.9987L14.9877 19.8996L14.8308 19.9987V20.1225L14.9093 20.2463L15.0661 20.4444V20.5683L15.1707 20.7911V21.336L15.0661 21.4846L14.7524 21.8313L14.5433 21.9551L14.4649 22.1037V22.4256L14.3341 22.4009H13.9682L13.8897 22.3513L13.8113 22.178L13.7329 22.0542H13.6283L13.5237 21.856V21.7322L13.4715 21.6827L13.3407 21.5836Z" fill="#33C095"/>
<path d="M14.7377 22.4004L14.5049 22.4253V22.1016L14.5566 21.9521L14.7894 21.8276L15.0999 21.5038L15.2033 21.3294V20.7566L15.0999 20.5573V20.383L14.8929 20.1339V19.9844L15.0481 19.8848L15.3585 20.0093L15.7466 20.2335L15.9018 20.0841L15.8242 19.8848H15.4879V18.8885H15.5655L15.7466 18.6893H16.2898V18.6395L16.3674 18.6145L16.5485 18.3406L16.6002 18.1911L16.7554 17.9171V17.5684L16.8848 17.5186L17.1693 17.2446L17.2728 17.1948L17.7643 17.3692L17.9454 17.2696L18.3075 17.1948L18.4886 17.2197V17.3692L18.3851 17.5435L18.4886 17.6432H18.6438L18.7214 17.5933L19.0318 17.5435L19.1094 17.6432L19.394 17.693L19.4974 17.5435V17.2197L19.5492 17.145L19.7561 17.1699L19.8079 17.2696L20.1441 17.3692L20.2735 17.4439L20.5063 17.5933L20.7391 17.7179L20.8426 17.8922H20.9719L21.0495 17.967L21.1013 18.0666L21.153 18.1164L20.8426 18.1662L20.6615 18.2658L20.558 18.3406V18.4402L20.4287 18.5647V18.8387L20.5063 18.9882L20.558 19.1625L20.5063 19.3618L20.377 19.4365V19.6108L20.1441 19.6856L20.0407 19.8101L19.9631 19.9844L19.8855 20.0343L19.8596 19.9844L19.7561 19.9595L19.6527 19.835L19.6785 20.0841V20.1339H19.5492L19.4198 20.1837L19.1094 20.1588L18.9542 20.0841H18.7731L18.5662 20.2833L18.5921 20.383L18.5145 20.4826L18.4886 20.6569L18.3592 20.7815L18.204 20.9558L17.9712 20.9309L17.816 21.0555H17.6608V21.2796H17.2986L17.0658 21.2547L16.8589 21.0555L16.8072 20.9558L16.5485 20.9309L16.4709 21.0555V21.3543H16.2898L16.2639 21.7529L15.9794 21.7778L16.0052 21.8276L15.6431 21.8774L15.6172 21.7529H15.5396V21.6283H15.4361L15.3844 21.7279V22.1763L15.2292 22.1265L15.0481 22.251L14.9446 22.2261L14.7377 22.3257V22.4004Z" fill="#33C095"/>
<path d="M14.2431 22.632V22.4095H14.0339L13.9292 22.3601L13.8508 22.2118L13.7723 22.0634H13.6677L13.5631 21.8657V21.7421L13.38 21.5938L13.1446 21.4949L13.0138 21.4701H12.8831L12.7785 21.3713V21.1982L12.7261 21.0632V20.778L12.7785 20.7285L12.7261 20.6049L12.5954 20.4319H12.4908V20.5555H12.3338L12.2031 20.5061L12.02 20.4566L11.9938 20.3825H11.8108L11.7584 20.4319H11.6277L11.5492 20.3083L11.4446 20.1847H11.183L10.9738 20.1353V20.4072L10.8692 20.6544V20.7533L10.7384 20.8274L10.503 20.7533L10.4507 20.8274L10.32 21.0746L10.503 21.2971V21.3713L10.3723 21.4701L10.3461 21.5196L10.2153 21.6432L10.1107 21.6926L10.0846 21.841H10.0584L10.0846 21.9398V22.3354L10.0584 22.4095L10.0323 22.6073L10.163 22.7309L10.1107 22.805L10.0846 22.8792L9.92765 22.9534L9.90149 23.0522L9.92765 23.1758V23.5714L9.90149 23.8186L9.79688 23.8433V23.9669H9.90149L10.0846 24.0411V24.2388L10.0323 24.3871L10.1369 24.4613L10.4769 24.2141L10.7123 24.1152L11.0523 24.2141L11.4184 24.0658L11.6015 24.2141L11.9677 24.0658V23.9175L12.2292 23.7197H12.3861L12.5431 23.7691L12.7 23.6208L12.8046 23.4972L13.0138 23.2995L13.1969 23.2006L13.2754 23.2995H13.4585L13.5108 23.077L13.72 22.9534H13.8508L14.0862 23.077L14.1646 22.8545H14.5046V22.6814L14.3477 22.632H14.2431Z" fill="#33C095"/>
<path d="M13.008 27.2325L13.1373 27.1333V27.5797L13.0597 27.8277V28.0509L13.008 28.1501L12.9563 28.3733L12.8787 28.4229L12.8012 28.5469L12.6977 28.6213L12.5685 28.7949H12.4392V28.9685L12.5167 29.0429V29.4397L12.4392 29.4893L12.5685 29.6133V30.5558L12.4909 30.6054H12.1547L12.0513 30.6798L11.9996 30.779V31.027L11.8445 31.0766L11.7152 31.275L11.6376 31.4238L11.6893 31.5974L11.8445 31.647L12.1547 31.6718L12.2065 31.8206L12.0513 31.7462H11.56L11.3273 31.7958L11.2498 31.8702L11.0946 31.9446H10.9653L10.8102 32.1678V32.4902L10.7068 32.639L10.3448 32.8622L10.2414 32.9118L10.0862 32.9862H9.8018L9.64666 32.8126L9.75008 32.639V32.4158L9.72423 32.3414V32.2422L9.64666 32.0686L9.75008 31.8702V31.7462L9.93108 31.6718L9.98279 31.4982L9.8018 31.4734L9.75008 31.275V30.779L9.72423 30.6054H9.64666L9.51737 30.6798L9.38809 30.6054L9.31052 30.4566V30.283L9.2071 30.0597L9.23295 29.8861L9.15538 29.7125L9.00024 29.6877L8.94853 29.5141L8.79339 29.4893L8.71582 29.3157L8.87096 29.2165L8.81925 29.0429H9.00024L9.12953 29.1917H9.28467L9.38809 29.0429L9.56909 28.9685H9.95694L10.0087 28.8941L10.2672 28.8693V28.6213L10.0345 28.5221V28.3981L10.1121 28.2989L10.0862 28.0509H10.2414L10.2931 27.9021L10.3706 27.8277L10.5258 27.8525H10.6551L10.9395 28.0509L11.1722 28.0261L11.2498 27.9021L11.3273 27.7533L11.4825 27.6541H11.741L11.9479 27.6045L12.0772 27.4309H12.5685L12.8012 27.1829L13.008 27.2325Z" fill="#33C095"/>
<path d="M18.0911 21.0857L18.1948 20.9869L17.9615 20.9622L17.8059 21.061H17.6504V21.3082H17.2356L17.0541 21.2835L16.8467 21.0857L16.7948 20.9869L16.5356 20.9622L16.4578 21.0857V21.3823L16.2763 21.407L16.2504 21.7778L15.9652 21.8025L15.9911 21.8519L15.6282 21.9014L15.6023 21.7778H15.5245V21.6542H15.4208L15.3689 21.7778V22.198L15.2134 22.1485L15.0319 22.2968L14.9282 22.2227L14.7208 22.3462V22.4204H14.5134H14.3838L14.2282 22.3957V22.6428H14.3319L14.4875 22.6923V22.8653H14.1504L14.0727 23.0877L13.8393 22.9641H13.7097L13.5023 23.0877L13.4505 23.3102H13.269L13.1912 23.2113L12.9838 23.3102L12.8023 23.5079L12.7245 23.6068L12.5431 23.7798L12.4134 23.7303H12.232L11.9727 23.9281V24.0764L11.6097 24.2247L11.4283 24.0764L11.0653 24.2247L10.7283 24.1258L10.469 24.2247L10.1579 24.4718L10.0542 24.3977L9.9246 24.4471H9.66534L9.61349 24.4965V24.8425L9.53571 25.0156V25.1391L9.63942 25.2627L9.66534 25.411L9.48386 25.4852L9.22461 25.4357L9.27646 25.6087L9.32831 25.7076L9.22461 25.8312V25.9795L9.27646 26.0536L9.32831 26.1772L9.38016 26.2019V26.4244L9.43201 26.3255L9.61349 26.3008H9.79497L9.9246 26.3255V26.5974H9.66534L9.61349 26.4491H9.50979L9.43201 26.5232L9.40609 26.6221L9.48386 26.6962V26.8445L9.50979 26.9187L9.69127 26.894L9.84682 26.7457L10.0542 26.894L10.3394 26.7704L10.4431 26.7457L10.5468 26.7704H10.6505L10.7283 26.9928L10.832 27.0175L10.9875 27.0423L11.0653 27.1906V27.3883H11.2727V27.4377L11.1172 27.6107V27.8332L10.9616 27.8579L10.832 27.9567L10.9616 28.0556L11.1949 28.0309L11.2986 27.8826L11.3505 27.759L11.506 27.6602H11.7653L11.9727 27.6107L12.1023 27.4377H12.5949L12.8282 27.1906L13.0356 27.24L13.1653 27.1658V26.9928L13.0356 26.6962L12.9838 26.4244L13.0356 26.2761V26.1278L12.9319 25.8806L12.906 25.3121L13.0097 25.1391V25.065L13.2949 24.6943L13.4764 24.6201H13.6838L13.7356 24.6943H13.8134L13.9171 24.6448L14.0727 24.5212V24.3977L14.1504 24.2741V24.0516H14.8504L15.3689 23.8292L15.4208 23.7551V23.1866L15.6023 23.0877L15.9652 22.9641L16.2763 22.8158L16.4578 22.6181L16.5356 22.4945L16.6652 22.4204L16.7948 22.2721L16.8726 22.1485L17.0541 22.0249L17.1578 21.9261H17.2615L17.3652 21.8272L17.5207 21.7531L17.8059 21.4812L17.9615 21.3082L18.0911 21.0857Z" fill="#33C095"/>
<path d="M26.2133 14.9212L26.2659 14.823L26.4237 14.9457L26.5289 15.2156L26.4763 15.3874V15.5592L26.3185 15.8045H26.1607L26.1081 15.8536L26.0029 16.0008V16.1481H25.9239L25.8713 16.3198V16.5407H25.582L25.4505 16.3444H25.3716L25.3453 16.1481L25.2137 16.0499L25.1611 15.8536V15.6082L25.2663 15.5101L25.6609 15.2402H25.7924L26.0029 15.1175V15.0684L26.0555 14.9702L26.2133 14.9212Z" fill="#33C095"/>
<path d="M11.1516 19.75C10.8234 19.75 10.488 19.7 10.1455 19.6001C9.81017 19.4931 9.49979 19.3361 9.21439 19.1292C8.92898 18.9152 8.71136 18.6476 8.56152 18.3265L9.6639 17.9198C9.84942 18.1838 10.067 18.3764 10.3168 18.4977C10.5665 18.6119 10.8234 18.669 11.0874 18.669C11.5083 18.669 11.8508 18.5441 12.1148 18.2944C12.3788 18.0375 12.5108 17.6986 12.5108 17.2776C12.5108 16.8709 12.3824 16.5356 12.1255 16.2716C11.8687 16.0076 11.5333 15.8756 11.1195 15.8756C10.8769 15.8756 10.6486 15.9291 10.4345 16.0361C10.2276 16.1432 10.067 16.2716 9.95287 16.4214L8.82909 16.1753L9.2465 12.1296H13.3884V13.2534H10.3168L10.1027 15.2869C10.2954 15.1728 10.5094 15.0836 10.7449 15.0194C10.9875 14.948 11.2408 14.9123 11.5048 14.9123C11.9329 14.9123 12.3182 15.0122 12.6607 15.212C13.0031 15.4118 13.2743 15.6865 13.4741 16.0361C13.6738 16.3786 13.7737 16.7746 13.7737 17.2241C13.7737 17.7236 13.6596 18.1624 13.4313 18.5406C13.2101 18.9187 12.9033 19.2148 12.5108 19.4289C12.1184 19.6429 11.6653 19.75 11.1516 19.75Z" fill="#C3F6E6"/>
</svg>
