<svg width="54" height="62" viewBox="0 0 54 62" fill="none" xmlns="http://www.w3.org/2000/svg">
<path d="M26.8259 60C40.2743 55.3645 49.8606 44.5885 51.3641 30.868C51.7812 24.9118 51.7459 18.9326 51.2585 12.9818C51.1944 12.0437 50.7828 11.1633 50.104 10.5126C49.4253 9.86184 48.5282 9.48768 47.5882 9.46321C41.5042 9.27583 34.4328 8.26158 28.9689 2.87954C28.3983 2.316 27.6286 2 26.8267 2C26.0247 2 25.255 2.316 24.6844 2.87954C19.2191 8.26158 12.1476 9.27583 6.06513 9.46321C5.12515 9.48768 4.2281 9.86184 3.54933 10.5126C2.87057 11.1633 2.4589 12.0437 2.39481 12.9818C1.90696 18.9326 1.87117 24.9118 2.28773 30.868C3.79125 44.5885 13.3775 55.3645 26.8259 60Z" stroke="#2B95D3" stroke-width="3" stroke-linecap="round" stroke-linejoin="round"/>
<path d="M17.1592 31.744L26.0822 39.1798L39.4666 22.821" stroke="#33C095" stroke-width="3"/>
</svg>
