<svg width="60" height="60" viewBox="0 0 60 60" fill="none" xmlns="http://www.w3.org/2000/svg">
<path d="M47.411 15.2671H47.3075L47.2342 15.3403L34.6384 27.9306L34.5226 28.0463L34.5824 28.1987C34.9952 29.2509 35.0332 30.4131 34.6899 31.49C34.3466 32.5669 33.643 33.4927 32.6974 34.1117C31.7517 34.7308 30.6218 35.0054 29.4975 34.8894C28.3732 34.7733 27.3232 34.2737 26.5239 33.4744C25.7247 32.6752 25.2251 31.6252 25.109 30.5009C24.993 29.3766 25.2676 28.2467 25.8866 27.301C26.5057 26.3554 27.4315 25.6518 28.5084 25.3085C29.5853 24.9652 30.7475 25.0032 31.7997 25.416L31.952 25.4758L32.0678 25.3601L44.6609 12.767L44.7341 12.6937V12.5902V7.45648C44.7341 7.45645 44.7341 7.45641 44.7341 7.45638C44.7343 6.83569 44.9809 6.24046 45.4196 5.80135L50.1919 1.02902L50.1925 1.02845C50.2488 0.971786 50.3194 0.93153 50.3969 0.91201C50.4744 0.89249 50.5557 0.894443 50.6321 0.917659L50.6321 0.917673L50.6347 0.91842C50.788 0.963223 50.9047 1.0916 50.9368 1.25386L50.9369 1.25436L52.2058 7.60194L52.2385 7.76539L52.402 7.79808L58.7468 9.06704C58.9062 9.09892 59.035 9.21539 59.08 9.36925L59.0807 9.37179C59.1038 9.44782 59.1059 9.52869 59.0867 9.60581C59.0675 9.6827 59.028 9.75299 58.9722 9.80924C58.972 9.80939 58.9719 9.80954 58.9717 9.80969L54.197 14.5816C54.197 14.5816 54.197 14.5816 54.197 14.5816C53.7585 15.0197 53.1643 15.2662 52.5444 15.2671H47.411Z" fill="#2B95D3" stroke="white" stroke-width="0.5"/>
<path d="M30 0.250015L30.0002 0.250014L30 4.13795V3.88795C29.9999 3.88795 29.9999 3.88795 29.9998 3.88795C23.0745 3.888 16.4329 6.63907 11.536 11.536C6.63902 16.433 3.88793 23.0747 3.88793 30C3.88793 36.9254 6.63902 43.5671 11.536 48.464C16.4329 53.361 23.0746 56.1121 30 56.1121C33.4291 56.1121 36.8246 55.4367 39.9927 54.1244C43.1607 52.8122 46.0393 50.8888 48.464 48.464C50.8887 46.0393 52.8122 43.1607 54.1244 39.9927C55.4367 36.8246 56.1121 33.4291 56.1121 30C56.1121 27.5009 55.7616 25.0848 55.1078 22.7991C54.996 22.3432 55.0648 21.8616 55.2999 21.4551C55.5357 21.0474 55.9205 20.747 56.3733 20.6173C56.8261 20.4875 57.3115 20.5384 57.7275 20.7593C58.1423 20.9796 58.4557 21.3516 58.6024 21.7976C59.351 24.4057 59.75 27.1562 59.75 30C59.75 46.4302 46.4302 59.75 30 59.75C13.5698 59.75 0.25 46.4302 0.25 30C0.25 13.5698 13.5698 0.250015 30 0.250015Z" fill="#33C095" stroke="white" stroke-width="0.5"/>
<path d="M16.3005 29.9999L16.3005 30.001C16.3084 31.8621 16.6955 33.702 17.4381 35.4085C18.1808 37.115 19.2635 38.6522 20.6201 39.9263C21.9767 41.2004 23.5787 42.1846 25.3284 42.8189C27.078 43.4531 28.9386 43.7242 30.7965 43.6154C32.6544 43.5066 34.4707 43.0203 36.1344 42.1861C37.798 41.352 39.2743 40.1875 40.4729 38.7638C41.6715 37.34 42.5674 35.687 43.1058 33.9055C43.6442 32.124 43.8139 30.2514 43.6045 28.4022L43.6047 28.4021L43.603 28.3914C43.5521 28.0682 43.5896 27.7373 43.7114 27.4337C43.8332 27.1302 44.0349 26.8652 44.2951 26.6669C44.5553 26.4686 44.8642 26.3444 45.1893 26.3074C45.5143 26.2704 45.8433 26.322 46.1413 26.4567L46.1425 26.4572C46.7513 26.7289 47.1611 27.3083 47.2144 27.9731L47.2143 27.9731L47.2154 27.9824C47.6376 31.559 46.9351 35.1784 45.2054 38.3374C43.4758 41.4964 40.8049 44.038 37.5642 45.6091C34.3234 47.1801 30.6737 47.7025 27.1223 47.1036C23.5709 46.5047 20.2944 44.8143 17.748 42.2673L17.748 42.2672C15.2023 39.723 13.5115 36.4497 12.9099 32.9013C12.3084 29.3528 12.826 25.7051 14.3909 22.4641C15.9558 19.223 18.4905 16.5493 21.6435 14.8137C24.7964 13.0781 28.4113 12.3666 31.9868 12.778L31.9868 12.778L31.9923 12.7785C32.2333 12.8009 32.4675 12.8712 32.6811 12.9852C32.8946 13.0992 33.0833 13.2548 33.2359 13.4427C33.3886 13.6305 33.5022 13.847 33.5701 14.0794C33.6381 14.3118 33.6589 14.5554 33.6315 14.7959C33.604 15.0364 33.5288 15.2691 33.4103 15.4802C33.2918 15.6913 33.1323 15.8766 32.9413 16.0253C32.7502 16.174 32.5314 16.283 32.2976 16.346C32.0639 16.409 31.8199 16.4247 31.58 16.3922L31.58 16.3922L31.5751 16.3916C29.656 16.1697 27.7117 16.3562 25.8698 16.9388C24.0279 17.5214 22.33 18.4869 20.8875 19.772C19.4451 21.0571 18.2907 22.6327 17.5002 24.3954C16.7097 26.1581 16.3008 28.068 16.3005 29.9999Z" fill="#7DCFB6" stroke="white" stroke-width="0.5"/>
</svg>
