<svg width="365" height="263" viewBox="0 0 365 263" fill="none" xmlns="http://www.w3.org/2000/svg">
<g clip-path="url(#clip0_62_1028)">
<rect width="365" height="263" fill="#EEF9FF"/>
<path d="M128.178 352.367L57.4922 -107.619H312.055L241.369 352.367H185.005H128.178Z" fill="url(#paint0_linear_62_1028)"/>
<path d="M166.048 132.995C167.194 121.54 181.083 108.057 185.737 104C202.561 119.75 201.726 125.001 205.067 132.995V223.202H166.048C165.571 197.906 164.903 144.45 166.048 132.995Z" fill="#2B95D3" stroke="#118BD6" stroke-width="1.40972"/>
<path d="M182.177 216.465L182.177 149.041H188.031V216.465H182.177Z" fill="#A5DDFF" stroke="#118BD6" stroke-width="1.3053"/>
<path d="M140 223.202L165.416 198.502V223.202H205.15V198.502L229.849 223.202H205.15H165.416H140Z" fill="#0671B4"/>
<circle cx="184.801" cy="135.801" r="6.09648" fill="#A5DDFF" stroke="#118BD6" stroke-width="1.40972"/>
<path d="M175 232.001V243.098" stroke="#118BD6" stroke-width="1.96891"/>
<path d="M185.738 232V249.898" stroke="#118BD6" stroke-width="1.96891"/>
<path d="M195.404 232V243.097" stroke="#118BD6" stroke-width="1.96891"/>
<circle cx="189.5" cy="-1.5" r="65.5" fill="#167AB6"/>
<circle cx="147.004" cy="17.2062" r="3.2956" fill="#66BCEA"/>
<circle cx="180.783" cy="38.6272" r="4.9434" fill="#66BCEA"/>
<circle cx="185.315" cy="5.25884" r="6.17925" fill="#66BCEA"/>
<circle cx="224.451" cy="8.14203" r="3.2956" fill="#66BCEA"/>
<circle cx="219.095" cy="33.2717" r="2.05975" fill="#66BCEA"/>
<path d="M87.3842 59.8564C87.3842 59.8564 71.0543 67.6442 79.3506 87.7777C79.3506 87.7777 85.1472 103.403 101.021 106.666C101.021 106.666 113.462 109.735 120.81 97.2729L87.3842 59.8564Z" fill="#74CBB4"/>
<path d="M121.061 75.2217C115.352 62.4519 102.085 54.4453 91.5861 57.7434C81.0186 61.0628 77.6733 74.4286 84.0105 87.1628C90.1626 99.5218 103.171 106.626 113.115 103.345C122.999 100.082 126.603 87.6187 121.061 75.2217Z" fill="#74CBB4"/>
<path d="M115.534 77.0867C119.619 86.0248 117.045 95.0309 109.83 97.3828C102.584 99.7441 93.1853 94.5732 88.7797 85.6539C84.2773 76.5375 86.7162 67.0642 94.2879 64.6842C101.824 62.3159 111.358 67.9561 115.532 77.089L115.534 77.0867Z" fill="white" stroke="#33C095" stroke-width="1.2697" stroke-miterlimit="10"/>
<path d="M102.267 69.3L97.1661 72.3938C94.9478 73.739 94.2408 76.6288 95.586 78.8471L95.6833 79.006C97.0285 81.2244 99.9183 81.9314 102.137 80.5861L103.221 79.929C105.439 78.5837 108.329 79.2908 109.674 81.5091C111.019 83.7274 110.312 86.6171 108.094 87.9623L102.324 91.4618" stroke="#33C095" stroke-width="1.2697" stroke-miterlimit="10"/>
<path d="M95.1836 71.0669L107.367 91.1527" stroke="#33C095" stroke-width="1.2697" stroke-miterlimit="10"/>
<path d="M97.5752 69.6184L109.758 89.7018" stroke="#33C095" stroke-width="1.2697" stroke-miterlimit="10"/>
<path d="M282.014 144.812C282.014 144.812 292.372 149.752 287.11 162.523C287.11 162.523 283.433 172.434 273.364 174.504C273.364 174.504 265.473 176.45 260.812 168.545L282.014 144.812Z" fill="#74CBB4"/>
<path d="M260.652 154.558C264.273 146.458 272.688 141.38 279.348 143.472C286.051 145.577 288.173 154.055 284.153 162.132C280.251 169.972 271.999 174.478 265.692 172.397C259.422 170.327 257.136 162.422 260.652 154.558Z" fill="#74CBB4"/>
<path d="M264.158 155.741C261.567 161.41 263.199 167.123 267.776 168.615C272.372 170.113 278.334 166.833 281.128 161.175C283.984 155.393 282.437 149.384 277.635 147.874C272.854 146.372 266.807 149.95 264.159 155.743L264.158 155.741Z" fill="white" stroke="#33C095" stroke-width="0.805378" stroke-miterlimit="10"/>
<path d="M278.316 154.117L274.998 152.296C273.556 151.504 271.744 152.032 270.952 153.475L270.896 153.579C270.104 155.021 270.632 156.833 272.074 157.625L272.779 158.012C274.222 158.804 274.75 160.615 273.958 162.058C273.166 163.501 271.354 164.029 269.912 163.237L266.16 161.177" stroke="#33C095" stroke-width="0.805378" stroke-miterlimit="10"/>
<path d="M275.098 150.786L267.928 163.848" stroke="#33C095" stroke-width="0.805378" stroke-miterlimit="10"/>
<path d="M276.652 151.64L269.484 164.702" stroke="#33C095" stroke-width="0.805378" stroke-miterlimit="10"/>
</g>
<defs>
<linearGradient id="paint0_linear_62_1028" x1="184.774" y1="-107.619" x2="185" y2="254.5" gradientUnits="userSpaceOnUse">
<stop stop-color="#BDE6FF"/>
<stop offset="1" stop-color="#EEF9FF"/>
</linearGradient>
<clipPath id="clip0_62_1028">
<rect width="365" height="263" fill="white"/>
</clipPath>
</defs>
</svg>
