<svg width="365" height="263" viewBox="0 0 365 263" fill="none" xmlns="http://www.w3.org/2000/svg">
<g clip-path="url(#clip0_62_1190)">
<rect width="365" height="263" fill="#EEF9FF"/>
<path d="M128.177 352.367L57.4912 -107.619H312.054L241.368 352.367H185.004H128.177Z" fill="url(#paint0_linear_62_1190)"/>
<path d="M279.071 131H215V268.889H279.071V131Z" fill="#66BCEA"/>
<path d="M279.072 268.889H309.914V139.047L279.072 131V268.889Z" fill="#2B95D3"/>
<path d="M229.011 143.045H222.457V158.746H229.011V143.045Z" fill="#2B95D3"/>
<path d="M223.164 143.89H229.011V143.045H222.457V158.746H223.164V143.89Z" fill="#B7DDF2"/>
<path d="M239.504 143.045H232.95V158.746H239.504V143.045Z" fill="#2B95D3"/>
<path d="M233.658 143.89H239.504V143.045H232.95V158.746H233.658V143.89Z" fill="#B7DDF2"/>
<path d="M249.998 143.045H243.444V158.746H249.998V143.045Z" fill="#B7DDF2"/>
<path d="M244.152 143.89H249.998V143.045H243.444V158.746H244.152V143.89Z" fill="#B7DDF2"/>
<path d="M260.491 143.045H253.938V158.746H260.491V143.045Z" fill="#2B95D3"/>
<path d="M254.645 143.89H260.491V143.045H253.938V158.746H254.645V143.89Z" fill="#B7DDF2"/>
<path d="M270.986 143.045H264.433V158.746H270.986V143.045Z" fill="#2B95D3"/>
<path d="M265.13 143.89H270.986V143.045H264.433V158.746H265.13V143.89Z" fill="#B7DDF2"/>
<path d="M229.011 163.52H222.457V179.221H229.011V163.52Z" fill="#2B95D3"/>
<path d="M223.164 164.365H229.011V163.52H222.457V179.221H223.164V164.365Z" fill="#B7DDF2"/>
<path d="M239.504 163.52H232.95V179.221H239.504V163.52Z" fill="#B7DDF2"/>
<path d="M233.658 164.365H239.504V163.52H232.95V179.221H233.658V164.365Z" fill="#B7DDF2"/>
<path d="M249.998 163.52H243.444V179.221H249.998V163.52Z" fill="#2B95D3"/>
<path d="M244.152 164.365H249.998V163.52H243.444V179.221H244.152V164.365Z" fill="#B7DDF2"/>
<path d="M260.491 163.52H253.938V179.221H260.491V163.52Z" fill="#2B95D3"/>
<path d="M254.645 164.365H260.491V163.52H253.938V179.221H254.645V164.365Z" fill="#B7DDF2"/>
<path d="M270.986 163.52H264.433V179.221H270.986V163.52Z" fill="#2B95D3"/>
<path d="M265.13 164.365H270.986V163.52H264.433V179.221H265.13V164.365Z" fill="#B7DDF2"/>
<path d="M229.011 183.998H222.457V199.698H229.011V183.998Z" fill="#2B95D3"/>
<path d="M223.164 184.843H229.011V183.998H222.457V199.698H223.164V184.843Z" fill="#B7DDF2"/>
<path d="M239.504 183.998H232.95V199.698H239.504V183.998Z" fill="#2B95D3"/>
<path d="M233.658 184.843H239.504V183.998H232.95V199.698H233.658V184.843Z" fill="#B7DDF2"/>
<path d="M249.998 183.998H243.444V199.698H249.998V183.998Z" fill="#2B95D3"/>
<path d="M244.152 184.843H249.998V183.998H243.444V199.698H244.152V184.843Z" fill="#B7DDF2"/>
<path d="M260.491 183.998H253.938V199.698H260.491V183.998Z" fill="#2B95D3"/>
<path d="M254.645 184.843H260.491V183.998H253.938V199.698H254.645V184.843Z" fill="#B7DDF2"/>
<path d="M270.986 183.998H264.433V199.698H270.986V183.998Z" fill="#B7DDF2"/>
<path d="M265.13 184.843H270.986V183.998H264.433V199.698H265.13V184.843Z" fill="#B7DDF2"/>
<path d="M229.011 204.474H222.457V220.175H229.011V204.474Z" fill="#2B95D3"/>
<path d="M223.164 205.319H229.011V204.474H222.457V220.175H223.164V205.319Z" fill="#B7DDF2"/>
<path d="M239.504 204.474H232.95V220.175H239.504V204.474Z" fill="#2B95D3"/>
<path d="M233.658 205.319H239.504V204.474H232.95V220.175H233.658V205.319Z" fill="#B7DDF2"/>
<path d="M249.998 204.474H243.444V220.175H249.998V204.474Z" fill="#2B95D3"/>
<path d="M244.152 205.319H249.998V204.474H243.444V220.175H244.152V205.319Z" fill="#B7DDF2"/>
<path d="M260.491 204.474H253.938V220.175H260.491V204.474Z" fill="#B7DDF2"/>
<path d="M254.645 205.319H260.491V204.474H253.938V220.175H254.645V205.319Z" fill="#B7DDF2"/>
<path d="M270.986 204.474H264.433V220.175H270.986V204.474Z" fill="#2B95D3"/>
<path d="M265.13 205.319H270.986V204.474H264.433V220.175H265.13V205.319Z" fill="#B7DDF2"/>
<path d="M229.011 224.949H222.457V240.65H229.011V224.949Z" fill="#B7DDF2"/>
<path d="M223.164 225.794H229.011V224.949H222.457V240.65H223.164V225.794Z" fill="#B7DDF2"/>
<path d="M239.504 224.949H232.95V240.65H239.504V224.949Z" fill="#2B95D3"/>
<path d="M233.658 225.794H239.504V224.949H232.95V240.65H233.658V225.794Z" fill="#B7DDF2"/>
<path d="M249.998 224.949H243.444V240.65H249.998V224.949Z" fill="#B7DDF2"/>
<path d="M244.152 225.794H249.998V224.949H243.444V240.65H244.152V225.794Z" fill="#B7DDF2"/>
<path d="M260.491 224.949H253.938V240.65H260.491V224.949Z" fill="#2B95D3"/>
<path d="M254.645 225.794H260.491V224.949H253.938V240.65H254.645V225.794Z" fill="#B7DDF2"/>
<path d="M270.986 224.949H264.433V240.65H270.986V224.949Z" fill="#2B95D3"/>
<path d="M265.13 225.794H270.986V224.949H264.433V240.65H265.13V225.794Z" fill="#B7DDF2"/>
<path d="M229.011 245.426H222.457V261.127H229.011V245.426Z" fill="#2B95D3"/>
<path d="M223.164 246.271H229.011V245.426H222.457V261.127H223.164V246.271Z" fill="#B7DDF2"/>
<path d="M239.504 245.426H232.95V261.127H239.504V245.426Z" fill="#B7DDF2"/>
<path d="M233.658 246.271H239.504V245.426H232.95V261.127H233.658V246.271Z" fill="#B7DDF2"/>
<path d="M249.998 245.426H243.444V261.127H249.998V245.426Z" fill="#2B95D3"/>
<path d="M244.152 246.271H249.998V245.426H243.444V261.127H244.152V246.271Z" fill="#B7DDF2"/>
<path d="M260.491 245.426H253.938V261.127H260.491V245.426Z" fill="#2B95D3"/>
<path d="M254.645 246.271H260.491V245.426H253.938V261.127H254.645V246.271Z" fill="#B7DDF2"/>
<path d="M270.986 245.426H264.433V261.127H270.986V245.426Z" fill="#B7DDF2"/>
<path d="M265.13 246.271H270.986V245.426H264.433V261.127H265.13V246.271Z" fill="#B7DDF2"/>
<path d="M285.301 160.416L282.078 159.64V143.88L285.301 144.814V160.416Z" fill="#66BCEA"/>
<path d="M290.813 161.742L287.698 160.996V145.501L290.813 146.405V161.742Z" fill="#66BCEA"/>
<path d="M296.148 163.03L293.132 162.303V147.074L296.148 147.939V163.03Z" fill="#66BCEA"/>
<path d="M301.307 164.278L298.389 163.57V148.587L301.307 149.432V164.278Z" fill="#66BCEA"/>
<path d="M306.307 165.489L303.478 164.801V150.053L306.307 150.869V165.489Z" fill="#66BCEA"/>
<path d="M285.301 180.472L282.078 179.893V164.143L285.301 164.879V180.472Z" fill="#66BCEA"/>
<path d="M290.813 181.471L287.698 180.901V165.417L290.813 166.124V181.471Z" fill="#66BCEA"/>
<path d="M296.148 182.435L293.132 181.894V166.655L296.148 167.343V182.435Z" fill="#66BCEA"/>
<path d="M301.307 183.368L298.389 182.838V167.854L301.307 168.522V183.368Z" fill="#66BCEA"/>
<path d="M306.307 184.273L303.478 183.762V169.015L306.307 169.663V184.273Z" fill="#66BCEA"/>
<path d="M285.301 200.534L282.078 200.141V184.391L285.301 184.931V200.534Z" fill="#66BCEA"/>
<path d="M290.813 201.202L287.698 200.819V185.334L290.813 185.855V201.202Z" fill="#66BCEA"/>
<path d="M296.148 201.839L293.132 201.475V186.246L296.148 186.747V201.839Z" fill="#66BCEA"/>
<path d="M301.307 202.458L298.389 202.114V187.121L301.307 187.612V202.458Z" fill="#66BCEA"/>
<path d="M306.307 203.069L303.478 202.725V187.977L306.307 188.449V203.069Z" fill="#66BCEA"/>
<path d="M285.301 220.586L282.078 220.4V204.64L285.301 204.994V220.586Z" fill="#66BCEA"/>
<path d="M290.813 220.921L287.698 220.735V205.25L290.813 205.584V220.921Z" fill="#66BCEA"/>
<path d="M296.148 221.246L293.132 221.06V205.83L296.148 206.155V221.246Z" fill="#66BCEA"/>
<path d="M301.307 221.559L298.389 221.383V206.389L301.307 206.704V221.559Z" fill="#66BCEA"/>
<path d="M306.307 221.855L303.478 221.688V206.94L306.307 207.245V221.855Z" fill="#66BCEA"/>
<path d="M285.301 240.651H282.078V224.901L285.301 225.048V240.651Z" fill="#66BCEA"/>
<path d="M290.813 240.652H287.698V225.157L290.813 225.304V240.652Z" fill="#66BCEA"/>
<path d="M296.148 240.651H293.132V225.412L296.148 225.559V240.651Z" fill="#66BCEA"/>
<path d="M301.307 240.65H298.389V225.667L301.307 225.804V240.65Z" fill="#66BCEA"/>
<path d="M306.307 240.65H303.478V225.902L306.307 226.03V240.65Z" fill="#66BCEA"/>
<path d="M285.301 245.897H282.078V261.156H285.301V245.897Z" fill="#66BCEA"/>
<path d="M290.823 245.897H287.698V261.156H290.823V245.897Z" fill="#66BCEA"/>
<path d="M296.148 245.897H293.132V261.156H296.148V245.897Z" fill="#66BCEA"/>
<path d="M301.307 245.897H298.389V261.156H301.307V245.897Z" fill="#66BCEA"/>
<path d="M306.307 245.897H303.478V261.156H306.307V245.897Z" fill="#66BCEA"/>
<path d="M114.306 133C91.4933 133 73.0088 136.238 73.0088 140.233V268.346H155.612V140.233C155.604 136.238 137.111 133 114.306 133Z" fill="#7DCFB6"/>
<path d="M114.306 133C91.4933 133 73.0088 136.238 73.0088 140.233V143.119C73.0088 139.124 91.5019 135.886 114.306 135.886C137.119 135.886 155.604 139.124 155.604 143.119V140.233C155.604 136.238 137.111 133 114.306 133Z" fill="#7DCFB6"/>
<path d="M114.306 152.494C91.4933 152.494 73.0088 155.732 73.0088 159.727V162.613C73.0088 158.618 91.5019 155.38 114.306 155.38C137.119 155.38 155.604 158.618 155.604 162.613V159.727C155.604 155.732 137.111 152.494 114.306 152.494Z" fill="#7DCFB6"/>
<path d="M114.306 170.573C91.4933 170.573 73.0088 173.811 73.0088 177.806V180.692C73.0088 176.697 91.5019 173.459 114.306 173.459C137.119 173.459 155.604 176.697 155.604 180.692V177.806C155.604 173.811 137.111 170.573 114.306 170.573Z" fill="#7DCFB6"/>
<path d="M114.306 188.652C91.4933 188.652 73.0088 191.89 73.0088 195.885V198.771C73.0088 194.776 91.5019 191.538 114.306 191.538C137.119 191.538 155.604 194.776 155.604 198.771V195.885C155.604 191.89 137.111 188.652 114.306 188.652Z" fill="#7DCFB6"/>
<path d="M114.306 206.732C91.4933 206.732 73.0088 209.97 73.0088 213.965V216.851C73.0088 212.856 91.5019 209.618 114.306 209.618C137.119 209.618 155.604 212.856 155.604 216.851V213.965C155.604 209.97 137.111 206.732 114.306 206.732Z" fill="#7DCFB6"/>
<path d="M114.306 224.812C91.4933 224.812 73.0088 228.05 73.0088 232.045V234.937C73.0088 230.942 91.5019 227.704 114.306 227.704C137.119 227.704 155.604 230.942 155.604 234.937V232.051C155.604 228.056 137.111 224.812 114.306 224.812Z" fill="#7DCFB6"/>
<path d="M114.306 242.898C91.4933 242.898 73.0088 246.137 73.0088 250.131V253.018C73.0088 249.023 91.5019 245.785 114.306 245.785C137.119 245.785 155.604 249.023 155.604 253.018V250.131C155.604 246.137 137.111 242.898 114.306 242.898Z" fill="#7DCFB6"/>
<path d="M114.306 260.977C91.4933 260.977 73.0088 264.215 73.0088 268.21V271.096C73.0088 267.101 91.5019 263.863 114.306 263.863C137.119 263.863 155.604 267.101 155.604 271.096V268.21C155.604 264.215 137.111 260.977 114.306 260.977Z" fill="#7DCFB6"/>
<path d="M137.496 141.377V151.56C139.036 151.742 140.491 151.942 141.868 152.159V141.975C140.491 141.764 139.036 141.559 137.496 141.377Z" fill="#BCEBDD"/>
<path d="M86.3115 142.047V152.23C87.6884 152.007 89.1513 151.802 90.6831 151.614V141.431C89.1513 141.618 87.6884 141.824 86.3115 142.047Z" fill="#BCEBDD"/>
<path d="M81.2598 143.025V153.209C82.1461 153.004 83.1013 152.804 84.1082 152.616V142.433C83.1013 142.62 82.1461 142.814 81.2598 143.025Z" fill="#BCEBDD"/>
<path d="M129.907 140.667V150.85C131.775 150.985 133.573 151.138 135.294 151.32V141.136C133.573 140.954 131.775 140.801 129.907 140.667Z" fill="#BCEBDD"/>
<path d="M73 147.366V157.55C73 156.828 73.611 156.124 74.7469 155.467V145.283C73.6196 145.94 73 146.639 73 147.366Z" fill="#BCEBDD"/>
<path d="M114.305 140.127C112.739 140.127 111.19 140.145 109.667 140.174V150.358C111.19 150.328 112.731 150.311 114.305 150.311C115.872 150.311 117.42 150.328 118.944 150.358V140.174C117.412 140.145 115.872 140.127 114.305 140.127Z" fill="#BCEBDD"/>
<path d="M76.9492 144.276V154.46C77.586 154.225 78.2917 153.996 79.0576 153.773V143.59C78.2917 143.813 77.586 144.041 76.9492 144.276Z" fill="#BCEBDD"/>
<path d="M121.139 140.234V150.417C123.393 150.482 125.588 150.582 127.705 150.711V140.527C125.588 140.398 123.402 140.298 121.139 140.234Z" fill="#BCEBDD"/>
<path d="M144.08 142.351V152.535C145.087 152.716 146.034 152.91 146.928 153.109V142.926C146.034 142.726 145.078 142.539 144.08 142.351Z" fill="#BCEBDD"/>
<path d="M100.477 140.542V150.726C102.723 150.585 105.055 150.48 107.464 150.409V140.226C105.055 140.302 102.723 140.407 100.477 140.542Z" fill="#33C095"/>
<path d="M153.435 145.053V155.237C154.829 155.965 155.603 156.739 155.603 157.549V147.365C155.603 146.555 154.837 145.775 153.435 145.053Z" fill="#BCEBDD"/>
<path d="M149.124 143.476V153.66C149.89 153.871 150.596 154.088 151.232 154.311V144.127C150.596 143.905 149.89 143.688 149.124 143.476Z" fill="#BCEBDD"/>
<path d="M92.8857 141.177V151.36C94.6068 151.178 96.4054 151.014 98.2727 150.879V140.696C96.4054 140.83 94.6068 140.995 92.8857 141.177Z" fill="#BCEBDD"/>
<path d="M137.496 159.456V169.64C139.036 169.822 140.491 170.021 141.868 170.238V160.054C140.491 159.843 139.036 159.644 137.496 159.456Z" fill="#BCEBDD"/>
<path d="M86.3115 160.126V170.31C87.6884 170.087 89.1513 169.881 90.6831 169.694V159.51C89.1513 159.698 87.6884 159.903 86.3115 160.126Z" fill="#BCEBDD"/>
<path d="M81.2598 161.104V171.288C82.1461 171.083 83.1013 170.883 84.1082 170.696V160.512C83.1013 160.7 82.1461 160.899 81.2598 161.104Z" fill="#BCEBDD"/>
<path d="M129.907 158.747V168.931C131.775 169.066 133.573 169.219 135.294 169.4V159.217C133.573 159.041 131.775 158.882 129.907 158.747Z" fill="#33C095"/>
<path d="M73 165.446V175.63C73 174.908 73.611 174.204 74.7469 173.547V163.364C73.6196 164.021 73 164.719 73 165.446Z" fill="#BCEBDD"/>
<path d="M114.305 158.212C112.739 158.212 111.19 158.23 109.667 158.259V168.443C111.19 168.413 112.731 168.396 114.305 168.396C115.872 168.396 117.42 168.413 118.944 168.443V158.259C117.412 158.23 115.872 158.212 114.305 158.212Z" fill="#33C095"/>
<path d="M76.9492 162.356V172.539C77.586 172.305 78.2917 172.076 79.0576 171.853V161.669C78.2917 161.892 77.586 162.121 76.9492 162.356Z" fill="#BCEBDD"/>
<path d="M121.139 158.313V168.497C123.393 168.561 125.588 168.661 127.705 168.79V158.606C125.588 158.477 123.402 158.378 121.139 158.313Z" fill="#33C095"/>
<path d="M144.08 160.437V170.621C145.087 170.803 146.034 170.996 146.928 171.196V161.012C146.034 160.812 145.078 160.619 144.08 160.437Z" fill="#BCEBDD"/>
<path d="M100.477 158.63V168.814C102.723 168.673 105.055 168.567 107.464 168.497V158.313C105.055 158.383 102.723 158.489 100.477 158.63Z" fill="#BCEBDD"/>
<path d="M153.435 163.134V173.318C154.829 174.045 155.603 174.82 155.603 175.629V165.446C155.603 164.636 154.837 163.862 153.435 163.134Z" fill="#BCEBDD"/>
<path d="M149.124 161.557V171.74C149.89 171.952 150.596 172.169 151.232 172.392V162.208C150.596 161.985 149.89 161.768 149.124 161.557Z" fill="#33C095"/>
<path d="M92.8857 159.256V169.44C94.6068 169.258 96.4054 169.094 98.2727 168.959V158.775C96.4054 158.916 94.6068 159.074 92.8857 159.256Z" fill="#BCEBDD"/>
<path d="M137.496 177.541V187.725C139.036 187.907 140.491 188.106 141.868 188.323V178.14C140.491 177.923 139.036 177.723 137.496 177.541Z" fill="#33C095"/>
<path d="M86.3115 178.211V188.395C87.6884 188.172 89.1513 187.967 90.6831 187.779V177.595C89.1513 177.783 87.6884 177.988 86.3115 178.211Z" fill="#BCEBDD"/>
<path d="M81.2598 179.184V189.368C82.1461 189.162 83.1013 188.963 84.1082 188.775V178.591C83.1013 178.779 82.1461 178.978 81.2598 179.184Z" fill="#33C095"/>
<path d="M129.907 176.827V187.01C131.775 187.145 133.573 187.298 135.294 187.48V177.296C133.573 177.12 131.775 176.962 129.907 176.827Z" fill="#BCEBDD"/>
<path d="M73 183.527V193.711C73 192.99 73.611 192.286 74.7469 191.629V181.445C73.6196 182.108 73 182.806 73 183.527Z" fill="#BCEBDD"/>
<path d="M114.305 176.292C112.739 176.292 111.19 176.31 109.667 176.339V186.523C111.19 186.494 112.731 186.476 114.305 186.476C115.872 186.476 117.42 186.494 118.944 186.523V176.339C117.412 176.31 115.872 176.292 114.305 176.292Z" fill="#BCEBDD"/>
<path d="M76.9492 180.44V190.624C77.586 190.389 78.2917 190.161 79.0576 189.938V179.754C78.2917 179.977 77.586 180.206 76.9492 180.44Z" fill="#BCEBDD"/>
<path d="M121.139 176.391V186.575C123.393 186.639 125.588 186.739 127.705 186.868V176.684C125.588 176.555 123.402 176.456 121.139 176.391Z" fill="#BCEBDD"/>
<path d="M144.08 178.517V188.701C145.087 188.883 146.034 189.077 146.928 189.276V179.092C146.034 178.893 145.078 178.699 144.08 178.517Z" fill="#BCEBDD"/>
<path d="M100.477 176.708V186.892C102.723 186.751 105.055 186.645 107.464 186.575V176.391C105.055 176.462 102.723 176.567 100.477 176.708Z" fill="#BCEBDD"/>
<path d="M153.435 181.215V191.399C154.829 192.126 155.603 192.9 155.603 193.71V183.526C155.603 182.717 154.837 181.942 153.435 181.215Z" fill="#BCEBDD"/>
<path d="M149.124 179.637V189.821C149.89 190.032 150.596 190.249 151.232 190.472V180.288C150.596 180.065 149.89 179.848 149.124 179.637Z" fill="#BCEBDD"/>
<path d="M92.8857 177.336V187.519C94.6068 187.337 96.4054 187.173 98.2727 187.038V176.854C96.4054 176.995 94.6068 177.154 92.8857 177.336Z" fill="#33C095"/>
<path d="M137.496 195.623V205.807C139.036 205.988 140.491 206.188 141.868 206.405V196.221C140.491 196.004 139.036 195.805 137.496 195.623Z" fill="#BCEBDD"/>
<path d="M86.3115 196.291V206.475C87.6884 206.252 89.1513 206.047 90.6831 205.859V195.675C89.1513 195.863 87.6884 196.068 86.3115 196.291Z" fill="#BCEBDD"/>
<path d="M81.2598 197.263V207.447C82.1461 207.242 83.1013 207.042 84.1082 206.854V196.671C83.1013 196.858 82.1461 197.058 81.2598 197.263Z" fill="#BCEBDD"/>
<path d="M129.907 194.911V205.095C131.775 205.23 133.573 205.383 135.294 205.564V195.381C133.573 195.199 131.775 195.04 129.907 194.911Z" fill="#BCEBDD"/>
<path d="M73 201.605V211.789C73 211.068 73.611 210.364 74.7469 209.707V199.523C73.6196 200.186 73 200.884 73 201.605Z" fill="#BCEBDD"/>
<path d="M114.305 194.373C112.739 194.373 111.19 194.39 109.667 194.419V204.603C111.19 204.574 112.731 204.556 114.305 204.556C115.872 204.556 117.42 204.574 118.944 204.603V194.419C117.412 194.39 115.872 194.373 114.305 194.373Z" fill="#BCEBDD"/>
<path d="M76.9492 198.521V208.704C77.586 208.47 78.2917 208.241 79.0576 208.018V197.834C78.2917 198.057 77.586 198.286 76.9492 198.521Z" fill="#BCEBDD"/>
<path d="M121.139 194.472V204.655C123.393 204.72 125.588 204.82 127.705 204.949V194.765C125.588 194.636 123.402 194.542 121.139 194.472Z" fill="#33C095"/>
<path d="M144.08 196.596V206.779C145.087 206.961 146.034 207.155 146.928 207.354V197.171C146.034 196.971 145.078 196.778 144.08 196.596Z" fill="#BCEBDD"/>
<path d="M100.477 194.788V204.972C102.723 204.831 105.055 204.726 107.464 204.655V194.472C105.055 194.542 102.723 194.648 100.477 194.788Z" fill="#BCEBDD"/>
<path d="M153.435 199.295V209.479C154.829 210.206 155.603 210.98 155.603 211.79V201.606C155.603 200.797 154.837 200.022 153.435 199.295Z" fill="#BCEBDD"/>
<path d="M149.124 197.722V207.906C149.89 208.117 150.596 208.334 151.232 208.557V198.374C150.596 198.145 149.89 197.928 149.124 197.722Z" fill="#BCEBDD"/>
<path d="M92.8857 195.423V205.606C94.6068 205.425 96.4054 205.26 98.2727 205.125V194.942C96.4054 195.077 94.6068 195.235 92.8857 195.423Z" fill="#BCEBDD"/>
<path d="M137.496 213.702V223.886C139.036 224.068 140.491 224.267 141.868 224.484V214.301C140.491 214.089 139.036 213.884 137.496 213.702Z" fill="#33C095"/>
<path d="M86.3115 214.371V224.555C87.6884 224.332 89.1513 224.126 90.6831 223.939V213.755C89.1513 213.943 87.6884 214.148 86.3115 214.371Z" fill="#BCEBDD"/>
<path d="M81.2598 215.352V225.536C82.1461 225.33 83.1013 225.131 84.1082 224.943V214.76C83.1013 214.947 82.1461 215.141 81.2598 215.352Z" fill="#BCEBDD"/>
<path d="M129.907 212.992V223.176C131.775 223.311 133.573 223.463 135.294 223.645V213.461C133.573 213.28 131.775 213.127 129.907 212.992Z" fill="#BCEBDD"/>
<path d="M73 219.692V229.875C73 229.154 73.611 228.45 74.7469 227.793V217.609C73.6196 218.266 73 218.964 73 219.692Z" fill="#BCEBDD"/>
<path d="M114.305 212.453C112.739 212.453 111.19 212.47 109.667 212.5V222.683C111.19 222.654 112.731 222.636 114.305 222.636C115.872 222.636 117.42 222.654 118.944 222.683V212.5C117.412 212.47 115.872 212.453 114.305 212.453Z" fill="#BCEBDD"/>
<path d="M76.9492 216.601V226.785C77.586 226.551 78.2917 226.322 79.0576 226.099V215.915C78.2917 216.138 77.586 216.367 76.9492 216.601Z" fill="#33C095"/>
<path d="M121.139 212.559V222.743C123.393 222.807 125.588 222.907 127.705 223.036V212.852C125.588 212.717 123.402 212.624 121.139 212.559Z" fill="#BCEBDD"/>
<path d="M144.08 214.675V224.859C145.087 225.041 146.034 225.234 146.928 225.434V215.25C146.034 215.05 145.078 214.863 144.08 214.675Z" fill="#BCEBDD"/>
<path d="M100.477 212.869V223.053C102.723 222.912 105.055 222.807 107.464 222.736V212.552C105.055 212.623 102.723 212.734 100.477 212.869Z" fill="#BCEBDD"/>
<path d="M153.435 217.38V227.564C154.829 228.292 155.603 229.066 155.603 229.875V219.692C155.603 218.882 154.837 218.102 153.435 217.38Z" fill="#BCEBDD"/>
<path d="M149.124 215.802V225.986C149.89 226.197 150.596 226.414 151.232 226.637V216.453C150.596 216.23 149.89 216.013 149.124 215.802Z" fill="#BCEBDD"/>
<path d="M92.8857 213.502V223.686C94.6068 223.504 96.4054 223.34 98.2727 223.205V213.021C96.4054 213.156 94.6068 213.32 92.8857 213.502Z" fill="#BCEBDD"/>
<path d="M137.496 231.781V241.965C139.036 242.147 140.491 242.346 141.868 242.563V232.38C140.491 232.168 139.036 231.969 137.496 231.781Z" fill="#BCEBDD"/>
<path d="M86.3115 232.449V242.633C87.6884 242.41 89.1513 242.205 90.6831 242.017V231.833C89.1513 232.021 87.6884 232.226 86.3115 232.449Z" fill="#BCEBDD"/>
<path d="M81.2598 233.43V243.613C82.1461 243.408 83.1013 243.209 84.1082 243.021V232.837C83.1013 233.025 82.1461 233.224 81.2598 233.43Z" fill="#33C095"/>
<path d="M129.907 231.071V241.255C131.775 241.39 133.573 241.542 135.294 241.724V231.54C133.573 231.358 131.775 231.206 129.907 231.071Z" fill="#BCEBDD"/>
<path d="M73 237.771V247.955C73 247.233 73.611 246.529 74.7469 245.872V235.688C73.6196 236.345 73 237.043 73 237.771Z" fill="#BCEBDD"/>
<path d="M114.305 230.537C112.739 230.537 111.19 230.555 109.667 230.584V240.768C111.19 240.738 112.731 240.721 114.305 240.721C115.872 240.721 117.42 240.738 118.944 240.768V230.584C117.412 230.549 115.872 230.537 114.305 230.537Z" fill="#33C095"/>
<path d="M76.9492 234.679V244.863C77.586 244.628 78.2917 244.399 79.0576 244.176V233.998C78.2917 234.215 77.586 234.444 76.9492 234.679Z" fill="#BCEBDD"/>
<path d="M121.139 230.636V240.819C123.393 240.884 125.588 240.984 127.705 241.113V230.929C125.588 230.8 123.402 230.7 121.139 230.636Z" fill="#33C095"/>
<path d="M144.08 232.762V242.946C145.087 243.128 146.034 243.321 146.928 243.521V233.337C146.034 233.138 145.078 232.944 144.08 232.762Z" fill="#33C095"/>
<path d="M100.477 230.953V241.136C102.723 240.995 105.055 240.89 107.464 240.819V230.636C105.055 230.706 102.723 230.812 100.477 230.953Z" fill="#BCEBDD"/>
<path d="M153.435 235.459V245.643C154.829 246.371 155.603 247.145 155.603 247.955V237.771C155.603 236.961 154.837 236.187 153.435 235.459Z" fill="#BCEBDD"/>
<path d="M149.124 233.882V244.065C149.89 244.277 150.596 244.494 151.232 244.717V234.533C150.596 234.31 149.89 234.093 149.124 233.882Z" fill="#BCEBDD"/>
<path d="M92.8857 231.581V241.765C94.6068 241.583 96.4054 241.419 98.2727 241.284V231.1C96.4054 231.235 94.6068 231.399 92.8857 231.581Z" fill="#33C095"/>
<path d="M137.496 249.865V260.049C139.036 260.231 140.491 260.431 141.868 260.648V250.464C140.491 250.247 139.036 250.047 137.496 249.865Z" fill="#BCEBDD"/>
<path d="M86.3115 250.529V260.712C87.6884 260.489 89.1513 260.284 90.6831 260.096V249.913C89.1513 250.106 87.6884 250.311 86.3115 250.529Z" fill="#BCEBDD"/>
<path d="M81.2598 251.508V261.692C82.1461 261.486 83.1013 261.287 84.1082 261.099V250.916C83.1013 251.103 82.1461 251.303 81.2598 251.508Z" fill="#33C095"/>
<path d="M129.907 249.149V259.333C131.775 259.468 133.573 259.621 135.294 259.802V249.619C133.573 249.443 131.775 249.284 129.907 249.149Z" fill="#33C095"/>
<path d="M73 255.85V266.034C73 265.312 73.611 264.608 74.7469 263.951V253.768C73.6196 254.425 73 255.129 73 255.85Z" fill="#BCEBDD"/>
<path d="M114.305 248.617C112.739 248.617 111.19 248.634 109.667 248.664V258.847C111.19 258.818 112.731 258.8 114.305 258.8C115.872 258.8 117.42 258.818 118.944 258.847V248.664C117.412 248.634 115.872 248.617 114.305 248.617Z" fill="#BCEBDD"/>
<path d="M76.9492 252.764V262.948C77.586 262.713 78.2917 262.485 79.0576 262.262V252.078C78.2917 252.295 77.586 252.524 76.9492 252.764Z" fill="#BCEBDD"/>
<path d="M121.139 248.716V258.9C123.393 258.965 125.588 259.064 127.705 259.193V249.01C125.588 248.881 123.402 248.781 121.139 248.716Z" fill="#BCEBDD"/>
<path d="M144.08 250.84V261.024C145.087 261.206 146.034 261.4 146.928 261.599V251.415C146.034 251.216 145.078 251.022 144.08 250.84Z" fill="#BCEBDD"/>
<path d="M100.477 249.033V259.217C102.723 259.076 105.055 258.97 107.464 258.9V248.716C105.055 248.787 102.723 248.892 100.477 249.033Z" fill="#33C095"/>
<path d="M153.435 253.538V263.721C154.829 264.449 155.603 265.223 155.603 266.033V255.849C155.603 255.039 154.837 254.265 153.435 253.538Z" fill="#BCEBDD"/>
<path d="M149.124 251.959V262.143C149.89 262.354 150.596 262.571 151.232 262.794V252.61C150.596 252.387 149.89 252.17 149.124 251.959Z" fill="#33C095"/>
<path d="M92.8857 249.661V259.844C94.6068 259.663 96.4054 259.498 98.2727 259.363V249.18C96.4054 249.32 94.6068 249.479 92.8857 249.661Z" fill="#BCEBDD"/>
<path fill-rule="evenodd" clip-rule="evenodd" d="M103.019 106.74C101.951 106.738 101.061 105.847 101.06 104.779L101.006 57.7186C101.005 56.7071 101.804 55.9092 102.816 55.9117L148.985 56.0244C150.053 56.027 150.943 56.9177 150.944 57.986L150.959 71.3641C150.961 72.8449 152.678 73.885 154.15 73.778C154.335 73.7646 154.521 73.758 154.709 73.7585C158.846 73.7686 162.204 77.1902 162.209 81.401C162.214 85.6117 158.864 89.017 154.727 89.0069C154.488 89.0063 154.253 88.9944 154.02 88.9717C152.588 88.8319 150.98 89.731 150.982 91.1637L150.998 105.046C150.999 106.057 150.2 106.855 149.188 106.853L135.623 106.82C134.268 106.816 133.386 108.246 133.476 109.603C133.487 109.772 133.493 109.943 133.493 110.115C133.498 114.326 130.148 117.731 126.011 117.721C121.874 117.711 118.517 114.289 118.512 110.078C118.512 109.958 118.514 109.839 118.519 109.72C118.582 108.317 117.574 106.776 116.167 106.772L103.019 106.74Z" fill="#33C095"/>
<mask id="path-195-outside-1_62_1190" maskUnits="userSpaceOnUse" x="216.958" y="53.9587" width="56.3922" height="67.1346" fill="black">
<rect fill="white" x="216.958" y="53.9587" width="56.3922" height="67.1346"/>
<path fill-rule="evenodd" clip-rule="evenodd" d="M222.894 89.9876C221.518 89.9005 220.043 90.7849 220.044 92.1595L220.06 105.778C220.061 106.847 220.951 107.737 222.019 107.74L235.167 107.772C236.574 107.775 237.582 109.317 237.52 110.72C237.515 110.839 237.512 110.958 237.512 111.078C237.517 115.289 240.875 118.711 245.012 118.721C249.149 118.731 252.499 115.326 252.494 111.115C252.494 110.943 252.488 110.772 252.476 110.602C252.387 109.246 253.268 107.816 254.624 107.82L268.188 107.853C269.2 107.855 269.999 107.057 269.998 106.046L269.982 92.3852C269.981 90.9599 268.396 89.9428 266.974 89.9966C266.874 90.0004 266.774 90.0022 266.673 90.0019C262.533 89.9926 259.174 86.5737 259.17 82.3657C259.165 78.1576 262.517 74.7539 266.657 74.7633C266.81 74.7637 266.961 74.7686 267.112 74.7781C268.487 74.8648 269.961 73.9805 269.96 72.6064L269.944 58.986C269.943 57.9177 269.053 57.027 267.985 57.0244L221.816 56.9117C220.804 56.9093 220.005 57.7072 220.006 58.7187L220.022 72.3805C220.023 73.8062 221.609 74.8234 223.031 74.7693C223.132 74.7654 223.232 74.7636 223.334 74.7639C227.473 74.7732 230.833 78.1921 230.837 82.4001C230.842 86.6082 227.489 90.0118 223.35 90.0025C223.197 90.0021 223.044 89.9971 222.894 89.9876Z"/>
</mask>
<path fill-rule="evenodd" clip-rule="evenodd" d="M222.894 89.9876C221.518 89.9005 220.043 90.7849 220.044 92.1595L220.06 105.778C220.061 106.847 220.951 107.737 222.019 107.74L235.167 107.772C236.574 107.775 237.582 109.317 237.52 110.72C237.515 110.839 237.512 110.958 237.512 111.078C237.517 115.289 240.875 118.711 245.012 118.721C249.149 118.731 252.499 115.326 252.494 111.115C252.494 110.943 252.488 110.772 252.476 110.602C252.387 109.246 253.268 107.816 254.624 107.82L268.188 107.853C269.2 107.855 269.999 107.057 269.998 106.046L269.982 92.3852C269.981 90.9599 268.396 89.9428 266.974 89.9966C266.874 90.0004 266.774 90.0022 266.673 90.0019C262.533 89.9926 259.174 86.5737 259.17 82.3657C259.165 78.1576 262.517 74.7539 266.657 74.7633C266.81 74.7637 266.961 74.7686 267.112 74.7781C268.487 74.8648 269.961 73.9805 269.96 72.6064L269.944 58.986C269.943 57.9177 269.053 57.027 267.985 57.0244L221.816 56.9117C220.804 56.9093 220.005 57.7072 220.006 58.7187L220.022 72.3805C220.023 73.8062 221.609 74.8234 223.031 74.7693C223.132 74.7654 223.232 74.7636 223.334 74.7639C227.473 74.7732 230.833 78.1921 230.837 82.4001C230.842 86.6082 227.489 90.0118 223.35 90.0025C223.197 90.0021 223.044 89.9971 222.894 89.9876Z" fill="#167AB4"/>
<path d="M237.512 111.078L238.769 111.13L237.512 111.078ZM245.012 118.721L244.962 117.465L244.962 117.465L245.012 118.721ZM252.494 111.115L253.75 111.166L252.494 111.115ZM266.673 90.0019L266.623 88.7458L266.673 90.0019ZM266.657 74.7633L266.607 73.5071L266.657 74.7633ZM223.334 74.7639L223.384 76.02L223.384 76.02L223.334 74.7639ZM230.837 82.4001L229.581 82.3485L230.837 82.4001ZM223.35 90.0025L223.4 91.2586L223.4 91.2586L223.35 90.0025ZM269.982 92.3852L268.726 92.3337L269.982 92.3852ZM266.974 89.9966L267.074 91.2519L266.974 89.9966ZM268.188 107.853L268.238 109.109L268.188 107.853ZM269.998 106.046L268.742 105.994L269.998 106.046ZM267.985 57.0244L267.935 55.7682L267.985 57.0244ZM235.167 107.772L235.117 106.516L235.167 107.772ZM237.52 110.72L238.775 110.828L237.52 110.72ZM252.476 110.602L251.223 110.633L252.476 110.602ZM254.624 107.82L254.574 106.563L254.624 107.82ZM267.112 74.7781L267.138 73.5244L267.112 74.7781ZM269.96 72.6064L268.704 72.5548L269.96 72.6064ZM222.894 89.9876L222.867 91.2412L222.894 89.9876ZM222.019 107.74L221.969 106.484L222.019 107.74ZM221.316 105.83L221.3 92.211L218.788 92.1079L218.803 105.727L221.316 105.83ZM235.117 106.516L221.969 106.484L222.069 108.996L235.217 109.028L235.117 106.516ZM238.769 111.13C238.768 111.029 238.771 110.928 238.775 110.828L236.265 110.612C236.259 110.749 236.256 110.888 236.256 111.027L238.769 111.13ZM244.962 117.465C241.559 117.456 238.773 114.651 238.769 111.13L236.256 111.027C236.262 115.927 240.19 119.965 245.062 119.977L244.962 117.465ZM251.238 111.063C251.242 114.62 248.405 117.473 244.962 117.465L245.062 119.977C249.893 119.989 253.755 116.032 253.75 111.166L251.238 111.063ZM251.223 110.633C251.232 110.775 251.237 110.918 251.238 111.063L253.75 111.166C253.75 110.967 253.743 110.769 253.73 110.572L251.223 110.633ZM268.138 106.596L254.574 106.563L254.674 109.076L268.238 109.109L268.138 106.596ZM268.726 92.3337L268.742 105.994L271.254 106.097L271.238 92.4368L268.726 92.3337ZM266.723 91.2581C266.841 91.2584 266.958 91.2563 267.074 91.2519L266.873 88.7413C266.79 88.7444 266.707 88.7459 266.623 88.7458L266.723 91.2581ZM257.913 82.314C257.919 87.2136 261.851 91.2471 266.723 91.2581L266.623 88.7458C263.216 88.738 260.43 85.9337 260.426 82.4173L257.913 82.314ZM266.607 73.5071C261.775 73.4962 257.908 77.4502 257.913 82.314L260.426 82.4173C260.422 78.865 263.26 76.0117 266.707 76.0195L266.607 73.5071ZM267.138 73.5244C266.962 73.5134 266.785 73.5075 266.607 73.5071L266.707 76.0195C266.834 76.0198 266.96 76.0239 267.085 76.0318L267.138 73.5244ZM268.688 58.9344L268.704 72.5548L271.216 72.6579L271.2 59.0375L268.688 58.9344ZM221.865 58.1679L268.035 58.2806L267.935 55.7682L221.766 55.6556L221.865 58.1679ZM221.278 72.432L221.262 58.7702L218.75 58.6672L218.765 72.3289L221.278 72.432ZM223.132 76.0245C223.215 76.0214 223.299 76.0199 223.384 76.02L223.283 73.5077C223.165 73.5074 223.048 73.5095 222.931 73.514L223.132 76.0245ZM223.384 76.02C226.79 76.0278 229.577 78.832 229.581 82.3485L232.093 82.4518C232.088 77.5522 228.156 73.5187 223.283 73.5077L223.384 76.02ZM229.581 82.3485C229.585 85.9008 226.747 88.7541 223.3 88.7463L223.4 91.2586C228.232 91.2696 232.098 87.3156 232.093 82.4518L229.581 82.3485ZM223.3 88.7463C223.172 88.746 223.045 88.7418 222.92 88.7339L222.867 91.2412C223.043 91.2524 223.221 91.2582 223.4 91.2586L223.3 88.7463ZM218.765 72.3289C218.767 73.5497 219.454 74.5201 220.274 75.1278C221.085 75.7289 222.126 76.0628 223.132 76.0245L222.931 73.514C222.514 73.5298 222.052 73.3822 221.714 73.1318C221.385 72.888 221.278 72.637 221.278 72.432L218.765 72.3289ZM221.766 55.6556C220.08 55.6515 218.748 56.9813 218.75 58.6672L221.262 58.7702C221.262 58.4331 221.528 58.1671 221.865 58.1679L221.766 55.6556ZM271.238 92.4368C271.237 91.2164 270.551 90.2461 269.731 89.6384C268.92 89.0373 267.879 88.7033 266.873 88.7413L267.074 91.2519C267.49 91.2361 267.953 91.3838 268.29 91.6341C268.619 91.8778 268.726 92.1288 268.726 92.3337L271.238 92.4368ZM268.238 109.109C269.924 109.113 271.256 107.783 271.254 106.097L268.742 105.994C268.742 106.331 268.476 106.597 268.138 106.596L268.238 109.109ZM271.2 59.0375C271.198 57.2571 269.716 55.7726 267.935 55.7682L268.035 58.2806C268.391 58.2814 268.688 58.5783 268.688 58.9344L271.2 59.0375ZM235.217 109.028C235.422 109.029 235.667 109.134 235.9 109.446C236.141 109.768 236.283 110.21 236.265 110.612L238.775 110.828C238.819 109.827 238.488 108.797 237.889 107.996C237.282 107.186 236.319 106.519 235.117 106.516L235.217 109.028ZM253.73 110.572C253.704 110.178 253.824 109.761 254.039 109.462C254.247 109.173 254.475 109.075 254.674 109.076L254.574 106.563C253.417 106.561 252.527 107.176 251.978 107.94C251.435 108.695 251.159 109.671 251.223 110.633L253.73 110.572ZM267.085 76.0318C268.051 76.0927 269.039 75.8179 269.805 75.276C270.581 74.728 271.217 73.8328 271.216 72.6579L268.704 72.5548C268.704 72.7541 268.604 72.9882 268.298 73.2041C267.984 73.4262 267.547 73.5502 267.138 73.5244L267.085 76.0318ZM221.3 92.211C221.3 92.0117 221.4 91.7775 221.706 91.5615C222.02 91.3393 222.458 91.2153 222.867 91.2412L222.92 88.7339C221.954 88.6727 220.966 88.9475 220.199 89.4894C219.424 90.0374 218.787 90.9326 218.788 92.1079L221.3 92.211ZM218.803 105.727C218.806 107.507 220.288 108.992 222.069 108.996L221.969 106.484C221.613 106.483 221.316 106.186 221.316 105.83L218.803 105.727Z" fill="#167AB4" mask="url(#path-195-outside-1_62_1190)"/>
<path d="M185.963 16.863L170.718 36.4923L179.363 36.4923L175.741 158.866L175.339 168.614L182.172 176.175L194.353 175.93L193.361 35.8031L201.621 35.8031L185.963 16.863Z" fill="url(#paint1_linear_62_1190)" fill-opacity="0.5"/>
</g>
<defs>
<linearGradient id="paint0_linear_62_1190" x1="184.773" y1="-107.619" x2="185" y2="254.5" gradientUnits="userSpaceOnUse">
<stop stop-color="#BDE6FF"/>
<stop offset="1" stop-color="#EEF9FF"/>
</linearGradient>
<linearGradient id="paint1_linear_62_1190" x1="142.773" y1="-43.2099" x2="134.7" y2="155.888" gradientUnits="userSpaceOnUse">
<stop stop-color="#33C095"/>
<stop offset="1" stop-color="#33C095" stop-opacity="0"/>
</linearGradient>
<clipPath id="clip0_62_1190">
<rect width="365" height="263" fill="white"/>
</clipPath>
</defs>
</svg>
