<svg width="365" height="263" viewBox="0 0 365 263" fill="none" xmlns="http://www.w3.org/2000/svg">
<g clip-path="url(#clip0_62_1071)">
<rect width="365" height="263" fill="#EEF9FF"/>
<path d="M128.177 352.367L57.4912 -107.619H312.054L241.368 352.367H185.004H128.177Z" fill="url(#paint0_linear_62_1071)"/>
<path d="M198.411 101H148.639V158.579H198.411V101Z" fill="#93D8CC"/>
<path d="M198.292 176.436H222.294V105.402L198.292 101V176.436Z" fill="#7DCFB6"/>
<path d="M203.358 113.492L200.864 113.062V104.463L203.358 104.975V113.492Z" fill="#C8EBFF" fill-opacity="0.3"/>
<path d="M207.625 114.216L205.212 113.809V105.345L207.625 105.842V114.216Z" fill="#C8EBFF" fill-opacity="0.3"/>
<path d="M211.744 114.924L209.412 114.525V106.204L211.744 106.679V114.924Z" fill="#C8EBFF" fill-opacity="0.3"/>
<path d="M215.733 115.603L213.475 115.218V107.033L215.733 107.493V115.603Z" fill="#C8EBFF" fill-opacity="0.3"/>
<path d="M219.603 116.258L217.41 115.889V107.832L219.603 108.277V116.258Z" fill="#C8EBFF" fill-opacity="0.3"/>
<path d="M203.358 124.442L200.864 124.126V115.526L203.358 115.926V124.442Z" fill="#C8EBFF" fill-opacity="0.3"/>
<path d="M207.625 124.994L205.212 124.685V116.221L207.625 116.613V124.994Z" fill="#C8EBFF" fill-opacity="0.3"/>
<path d="M211.744 125.514L209.412 125.22V116.899L211.744 117.276V125.514Z" fill="#C8EBFF" fill-opacity="0.3"/>
<path d="M215.733 126.026L213.475 125.739V117.554L215.733 117.916V126.026Z" fill="#C8EBFF" fill-opacity="0.3"/>
<path d="M219.603 126.523L217.41 126.245V118.188L219.603 118.542V126.523Z" fill="#C8EBFF" fill-opacity="0.3"/>
<path d="M203.358 135.402L200.864 135.184V126.584L203.358 126.878V135.402Z" fill="#C8EBFF" fill-opacity="0.3"/>
<path d="M207.625 135.762L205.212 135.551V127.095L207.625 127.381V135.762Z" fill="#C8EBFF" fill-opacity="0.3"/>
<path d="M211.744 136.109L209.412 135.913V127.593L211.744 127.872V136.109Z" fill="#C8EBFF" fill-opacity="0.3"/>
<path d="M215.733 136.449L213.475 136.26V128.075L215.733 128.347V136.449Z" fill="#C8EBFF" fill-opacity="0.3"/>
<path d="M219.603 136.781L217.41 136.592V128.543L219.603 128.799V136.781Z" fill="#C8EBFF" fill-opacity="0.3"/>
<path d="M203.358 146.352L200.864 146.247V137.64L203.358 137.828V146.352Z" fill="#C8EBFF" fill-opacity="0.3"/>
<path d="M207.625 146.534L205.212 146.428V137.972L207.625 138.153V146.534Z" fill="#C8EBFF" fill-opacity="0.3"/>
<path d="M211.744 146.707L209.412 146.609V138.289L211.744 138.47V146.707Z" fill="#C8EBFF" fill-opacity="0.3"/>
<path d="M215.733 146.88L213.475 146.782V138.597L215.733 138.77V146.88Z" fill="#C8EBFF" fill-opacity="0.3"/>
<path d="M219.603 147.046L217.41 146.948V138.899L219.603 139.064V147.046Z" fill="#C8EBFF" fill-opacity="0.3"/>
<path d="M203.358 157.304H200.864V148.705L203.358 148.788V157.304Z" fill="#C8EBFF" fill-opacity="0.3"/>
<path d="M207.625 157.305H205.212V148.849L207.625 148.932V157.305Z" fill="#C8EBFF" fill-opacity="0.3"/>
<path d="M211.744 157.304H209.412V148.984L211.744 149.067V157.304Z" fill="#C8EBFF" fill-opacity="0.3"/>
<path d="M215.733 157.305H213.475V149.12L215.733 149.195V157.305Z" fill="#C8EBFF" fill-opacity="0.3"/>
<path d="M219.603 157.304H217.41V149.255L219.603 149.323V157.304Z" fill="#C8EBFF" fill-opacity="0.3"/>
<path d="M203.226 163.737H200.732V172.065H203.226V163.737Z" fill="#C8EBFF" fill-opacity="0.3"/>
<path d="M207.494 163.736H205.081V172.065H207.494V163.736Z" fill="#C8EBFF" fill-opacity="0.3"/>
<path d="M211.613 163.736H209.281V172.065H211.613V163.736Z" fill="#C8EBFF" fill-opacity="0.3"/>
<path d="M215.6 163.736H213.342V172.065H215.6V163.736Z" fill="#C8EBFF" fill-opacity="0.3"/>
<path d="M219.463 163.736H217.278V172.065H219.463V163.736Z" fill="#C8EBFF" fill-opacity="0.3"/>
<path d="M203.606 157.919H134V263.118H203.606V157.919Z" fill="#66BCEA"/>
<path d="M153.308 233.259H138.602V257.866H153.308V233.259Z" fill="#167AB6" fill-opacity="0.37"/>
<path d="M153.308 200.616H138.602V225.223H153.308V200.616Z" fill="#167AB6" fill-opacity="0.37"/>
<path d="M153.308 167.975H138.602V192.582H153.308V167.975Z" fill="#167AB6" fill-opacity="0.37"/>
<path d="M175.368 233.259H160.661V257.866H175.368V233.259Z" fill="#167AB6" fill-opacity="0.37"/>
<path d="M175.368 200.616H160.661V225.223H175.368V200.616Z" fill="#167AB6" fill-opacity="0.37"/>
<path d="M175.368 167.975H160.661V192.582H175.368V167.975Z" fill="#167AB6" fill-opacity="0.37"/>
<path d="M193.531 105.88H152.542V153.7H193.531V105.88Z" fill="#33C095"/>
<path d="M197.427 233.259H182.721V257.866H197.427V233.259Z" fill="#167AB6" fill-opacity="0.37"/>
<path d="M197.427 200.616H182.721V225.223H197.427V200.616Z" fill="#167AB6" fill-opacity="0.37"/>
<path d="M197.427 167.975H182.721V192.582H197.427V167.975Z" fill="#167AB6" fill-opacity="0.37"/>
<path d="M203.437 262.194H236.869V164.522L203.437 158.469V262.194Z" fill="#167AB6"/>
<path d="M210.384 180.695L206.875 180.1V168.011L210.384 168.727V180.695Z" fill="#C8EBFF" fill-opacity="0.3"/>
<path d="M216.371 181.72L212.979 181.14V169.254L216.371 169.948V181.72Z" fill="#C8EBFF" fill-opacity="0.3"/>
<path d="M222.163 182.708L218.882 182.143V170.46L222.163 171.124V182.708Z" fill="#C8EBFF" fill-opacity="0.3"/>
<path d="M227.768 183.657L224.59 183.122V171.621L227.768 172.269V183.657Z" fill="#C8EBFF" fill-opacity="0.3"/>
<path d="M233.197 184.584L230.122 184.064V172.744L233.197 173.377V184.584Z" fill="#C8EBFF" fill-opacity="0.3"/>
<path d="M210.384 196.085L206.875 195.633V183.552L210.384 184.117V196.085Z" fill="#C8EBFF" fill-opacity="0.3"/>
<path d="M216.371 196.846L212.979 196.417V184.531L216.371 185.081V196.846Z" fill="#C8EBFF" fill-opacity="0.3"/>
<path d="M222.163 197.593L218.882 197.171V185.481L222.163 186.016V197.593Z" fill="#C8EBFF" fill-opacity="0.3"/>
<path d="M227.768 198.309L224.59 197.902V186.401L227.768 186.914V198.309Z" fill="#C8EBFF" fill-opacity="0.3"/>
<path d="M233.197 199.001L230.122 198.609V187.297L233.197 187.787V199.001Z" fill="#C8EBFF" fill-opacity="0.3"/>
<path d="M210.384 211.475L206.875 211.174V199.092L210.384 199.507V211.475Z" fill="#C8EBFF" fill-opacity="0.3"/>
<path d="M216.371 211.98L212.979 211.694V199.808L216.371 200.215V211.98Z" fill="#C8EBFF" fill-opacity="0.3"/>
<path d="M222.163 212.478L218.882 212.199V200.51L222.163 200.902V212.478Z" fill="#C8EBFF" fill-opacity="0.3"/>
<path d="M227.768 212.953L224.59 212.681V201.188L227.768 201.565V212.953Z" fill="#C8EBFF" fill-opacity="0.3"/>
<path d="M233.197 213.421L230.122 213.157V201.844L233.197 202.206V213.421Z" fill="#C8EBFF" fill-opacity="0.3"/>
<path d="M210.384 226.858L206.875 226.715V214.625L210.384 214.889V226.858Z" fill="#C8EBFF" fill-opacity="0.3"/>
<path d="M216.371 227.113L212.979 226.97V215.092L216.371 215.348V227.113Z" fill="#C8EBFF" fill-opacity="0.3"/>
<path d="M222.163 227.363L218.882 227.228V215.538L222.163 215.787V227.363Z" fill="#C8EBFF" fill-opacity="0.3"/>
<path d="M227.768 227.604L224.59 227.468V215.967L227.768 216.208V227.604Z" fill="#C8EBFF" fill-opacity="0.3"/>
<path d="M233.197 227.83L230.122 227.701V216.389L233.197 216.622V227.83Z" fill="#C8EBFF" fill-opacity="0.3"/>
<path d="M210.384 242.248H206.875V230.167L210.384 230.28V242.248Z" fill="#C8EBFF" fill-opacity="0.3"/>
<path d="M216.371 242.247H212.979V230.369L216.371 230.482V242.247Z" fill="#C8EBFF" fill-opacity="0.3"/>
<path d="M222.163 242.248H218.882V230.565L222.163 230.671V242.248Z" fill="#C8EBFF" fill-opacity="0.3"/>
<path d="M227.768 242.248H224.59V230.754L227.768 230.859V242.248Z" fill="#C8EBFF" fill-opacity="0.3"/>
<path d="M233.197 242.248H230.122V230.935L233.197 231.041V242.248Z" fill="#C8EBFF" fill-opacity="0.3"/>
<path d="M210.377 246.273H206.875V257.978H210.377V246.273Z" fill="#C8EBFF" fill-opacity="0.3"/>
<path d="M216.371 246.273H212.979V257.978H216.371V246.273Z" fill="#C8EBFF" fill-opacity="0.3"/>
<path d="M222.163 246.273H218.882V257.978H222.163V246.273Z" fill="#C8EBFF" fill-opacity="0.3"/>
<path d="M227.761 246.273H224.59V257.978H227.761V246.273Z" fill="#C8EBFF" fill-opacity="0.3"/>
<path d="M233.197 246.273H230.122V257.978H233.197V246.273Z" fill="#C8EBFF" fill-opacity="0.3"/>
<path d="M165.938 55.5024C165.938 55.5024 156.309 54.4824 154.456 65.9884C154.456 65.9884 152.725 74.7383 159.052 80.6712C159.052 80.6712 163.867 85.5541 170.708 81.9275L165.938 55.5024Z" fill="#74CBB4"/>
<path d="M176.997 71.9397C177.968 64.5169 174.158 57.1502 168.446 55.715C162.697 54.2704 157.429 59.4301 156.754 67.0126C156.1 74.3723 160.044 81.255 165.498 82.5423C170.92 83.8216 176.054 79.1459 176.997 71.9397Z" fill="#74CBB4"/>
<path d="M173.953 71.2432C173.314 76.4636 169.618 79.8509 165.669 78.9034C161.703 77.9517 158.863 72.9616 159.351 67.6599C159.85 62.2411 163.615 58.603 167.735 59.6374C171.835 60.6673 174.605 65.9092 173.951 71.2436L173.953 71.2432Z" fill="white" stroke="#33C095" stroke-width="0.67954" stroke-miterlimit="10"/>
<path d="M170.082 63.977L166.889 63.9599C165.501 63.9524 164.369 65.0725 164.362 66.461L164.361 66.5607C164.354 67.9491 165.474 69.0807 166.862 69.0882L167.541 69.0921C168.929 69.0996 170.05 70.2311 170.042 71.6196C170.034 73.008 168.903 74.1281 167.514 74.1206L163.903 74.1013" stroke="#33C095" stroke-width="0.67954" stroke-miterlimit="10"/>
<path d="M166.355 62.7988L166.289 75.3713" stroke="#33C095" stroke-width="0.67954" stroke-miterlimit="10"/>
<path d="M167.853 62.8083L167.786 75.3798" stroke="#33C095" stroke-width="0.67954" stroke-miterlimit="10"/>
<path d="M187.984 72.6281C187.984 72.6281 183.274 72.1292 182.368 77.7571C182.368 77.7571 181.521 82.0368 184.616 84.9387C184.616 84.9387 186.971 87.327 190.317 85.5532L187.984 72.6281Z" fill="#74CBB4"/>
<path d="M193.393 80.6678C193.868 77.0372 192.005 73.434 189.211 72.732C186.399 72.0254 183.822 74.5491 183.492 78.2579C183.172 81.8577 185.101 85.2241 187.769 85.8538C190.421 86.4795 192.932 84.1925 193.393 80.6678Z" fill="#74CBB4"/>
<path d="M191.904 80.3271C191.591 82.8806 189.783 84.5374 187.852 84.074C185.912 83.6084 184.523 81.1677 184.762 78.5745C185.006 75.924 186.847 74.1446 188.862 74.6505C190.868 75.1543 192.222 77.7182 191.903 80.3273L191.904 80.3271Z" fill="white" stroke="#33C095" stroke-width="0.332377" stroke-miterlimit="10"/>
<path d="M190.011 76.7732L188.449 76.7649C187.77 76.7612 187.216 77.309 187.213 77.9882L187.213 78.0369C187.209 78.7161 187.757 79.2695 188.436 79.2732L188.768 79.2751C189.447 79.2788 189.995 79.8322 189.991 80.5114C189.988 81.1905 189.434 81.7383 188.755 81.7347L186.988 81.7252" stroke="#33C095" stroke-width="0.332377" stroke-miterlimit="10"/>
<path d="M188.188 76.197L188.156 82.3465" stroke="#33C095" stroke-width="0.332377" stroke-miterlimit="10"/>
<path d="M188.92 76.2014L188.888 82.3504" stroke="#33C095" stroke-width="0.332377" stroke-miterlimit="10"/>
<path d="M196.181 27.354C196.181 27.354 181.65 25.8147 178.854 43.1787C178.854 43.1787 176.241 56.3835 185.789 65.3369C185.789 65.3369 193.056 72.7058 203.38 67.2328L196.181 27.354Z" fill="#74CBB4"/>
<path d="M212.87 52.1602C214.336 40.9582 208.587 29.841 199.966 27.6751C191.29 25.4949 183.34 33.2815 182.321 44.7246C181.334 55.8313 187.286 66.2182 195.517 68.1609C203.7 70.0916 211.447 63.0353 212.87 52.1602Z" fill="#74CBB4"/>
<path d="M208.278 51.109C207.313 58.9873 201.736 64.0991 195.775 62.6694C189.79 61.2331 185.505 53.7023 186.241 45.7013C186.994 37.5237 192.676 32.0334 198.893 33.5945C205.082 35.1486 209.261 43.0593 208.275 51.1096L208.278 51.109Z" fill="white" stroke="#33C095" stroke-width="1.02551" stroke-miterlimit="10"/>
<path d="M202.435 40.143L197.617 40.1172C195.522 40.1059 193.814 41.7963 193.802 43.8916L193.802 44.0421C193.791 46.1375 195.481 47.8452 197.577 47.8565L198.601 47.8623C200.696 47.8736 202.386 49.5813 202.375 51.6767C202.364 53.772 200.656 55.4624 198.561 55.451L193.11 55.4218" stroke="#33C095" stroke-width="1.02551" stroke-miterlimit="10"/>
<path d="M196.812 38.3652L196.712 57.3387" stroke="#33C095" stroke-width="1.02551" stroke-miterlimit="10"/>
<path d="M199.071 38.3792L198.971 57.351" stroke="#33C095" stroke-width="1.02551" stroke-miterlimit="10"/>
</g>
<defs>
<linearGradient id="paint0_linear_62_1071" x1="184.773" y1="-107.619" x2="185" y2="254.5" gradientUnits="userSpaceOnUse">
<stop stop-color="#BDE6FF"/>
<stop offset="1" stop-color="#EEF9FF"/>
</linearGradient>
<clipPath id="clip0_62_1071">
<rect width="365" height="263" fill="white"/>
</clipPath>
</defs>
</svg>
